solid OpenSCAD_Model
  facet normal -1 0 0
    outer loop
      vertex -21.61 0 0
      vertex -21.61 0 1.07
      vertex -21.61 45.8 0
    endloop
  endfacet
  facet normal -1 0 0
    outer loop
      vertex -21.61 45.8 0
      vertex -21.61 0 1.07
      vertex -21.61 45.8 1.07
    endloop
  endfacet
  facet normal 0 -1 0
    outer loop
      vertex -21.61 0 1.07
      vertex -21.61 0 0
      vertex 21.61 0 0
    endloop
  endfacet
  facet normal 0 -1 0
    outer loop
      vertex 21.61 0 1.07
      vertex -21.61 0 1.07
      vertex 21.61 0 0
    endloop
  endfacet
  facet normal 0 0 -1
    outer loop
      vertex -21.61 0 0
      vertex -21.61 45.8 0
      vertex 21.61 0 0
    endloop
  endfacet
  facet normal 0 0 -1
    outer loop
      vertex 21.61 0 0
      vertex -21.61 45.8 0
      vertex 21.61 45.8 0
    endloop
  endfacet
  facet normal 0 1 0
    outer loop
      vertex -21.61 45.8 0
      vertex -21.61 45.8 1.07
      vertex 21.61 45.8 0
    endloop
  endfacet
  facet normal 0 1 0
    outer loop
      vertex 21.61 45.8 0
      vertex -21.61 45.8 1.07
      vertex 21.61 45.8 1.07
    endloop
  endfacet
  facet normal 0 0 1
    outer loop
      vertex -20 6.7 1.07
      vertex -21.61 0 1.07
      vertex 21.61 0 1.07
    endloop
  endfacet
  facet normal 0 0 1
    outer loop
      vertex -21.61 45.8 1.07
      vertex -21.61 0 1.07
      vertex -20 6.7 1.07
    endloop
  endfacet
  facet normal 0 0 1
    outer loop
      vertex -20 40.65 1.07
      vertex 20 40.65 1.07
      vertex -21.61 45.8 1.07
    endloop
  endfacet
  facet normal 0 0 1
    outer loop
      vertex -21.61 45.8 1.07
      vertex -20 6.7 1.07
      vertex -20 40.65 1.07
    endloop
  endfacet
  facet normal 0 0 1
    outer loop
      vertex 21.61 45.8 1.07
      vertex 20 40.65 1.07
      vertex 21.61 0 1.07
    endloop
  endfacet
  facet normal 0 0 1
    outer loop
      vertex 21.61 45.8 1.07
      vertex -21.61 45.8 1.07
      vertex 20 40.65 1.07
    endloop
  endfacet
  facet normal 0 0 1
    outer loop
      vertex 20 40.65 1.07
      vertex 20 6.7 1.07
      vertex 21.61 0 1.07
    endloop
  endfacet
  facet normal 0 0 1
    outer loop
      vertex 20 6.7 1.07
      vertex -20 6.7 1.07
      vertex 21.61 0 1.07
    endloop
  endfacet
  facet normal 1 0 0
    outer loop
      vertex 21.61 0 1.07
      vertex 21.61 0 0
      vertex 21.61 45.8 0
    endloop
  endfacet
  facet normal 1 0 0
    outer loop
      vertex 21.61 45.8 1.07
      vertex 21.61 0 1.07
      vertex 21.61 45.8 0
    endloop
  endfacet
  facet normal -1 0 0
    outer loop
      vertex -20 6.7 1.07
      vertex -20 6.7 4.82
      vertex -20 40.65 1.07
    endloop
  endfacet
  facet normal -1 0 0
    outer loop
      vertex -20 40.65 1.07
      vertex -20 6.7 4.82
      vertex -20 40.65 4.82
    endloop
  endfacet
  facet normal 0 -1 0
    outer loop
      vertex -20 6.7 4.82
      vertex -20 6.7 1.07
      vertex 20 6.7 1.07
    endloop
  endfacet
  facet normal 0 -1 0
    outer loop
      vertex 20 6.7 4.82
      vertex -20 6.7 4.82
      vertex 20 6.7 1.07
    endloop
  endfacet
  facet normal 1 0 0
    outer loop
      vertex 20 6.7 4.82
      vertex 20 6.7 1.07
      vertex 20 40.65 1.07
    endloop
  endfacet
  facet normal 1 0 0
    outer loop
      vertex 20 40.65 4.82
      vertex 20 6.7 4.82
      vertex 20 40.65 1.07
    endloop
  endfacet
  facet normal 0 1 0
    outer loop
      vertex -20 40.65 1.07
      vertex -20 40.65 4.82
      vertex 20 40.65 1.07
    endloop
  endfacet
  facet normal 0 1 0
    outer loop
      vertex 20 40.65 1.07
      vertex -20 40.65 4.82
      vertex 20 40.65 4.82
    endloop
  endfacet
  facet normal 0 0 1
    outer loop
      vertex -13.21 8.13 4.82
      vertex -20 6.7 4.82
      vertex 20 6.7 4.82
    endloop
  endfacet
  facet normal 0 0 1
    outer loop
      vertex -20 40.65 4.82
      vertex -20 6.7 4.82
      vertex -18.21 13.13 4.82
    endloop
  endfacet
  facet normal 0 0 1
    outer loop
      vertex 13.21 8.13 4.82
      vertex -13.21 8.13 4.82
      vertex 20 6.7 4.82
    endloop
  endfacet
  facet normal 0 0 1
    outer loop
      vertex -20 40.65 4.82
      vertex -18.21 13.13 4.82
      vertex -18.21 28.96 4.82
    endloop
  endfacet
  facet normal 0 0 1
    outer loop
      vertex -20 40.65 4.82
      vertex -18.21 28.96 4.82
      vertex -17.829 30.873 4.82
    endloop
  endfacet
  facet normal 0 0 1
    outer loop
      vertex -20 40.65 4.82
      vertex -17.829 30.873 4.82
      vertex -16.746 32.496 4.82
    endloop
  endfacet
  facet normal 0 0 1
    outer loop
      vertex -20 40.65 4.82
      vertex -16.746 32.496 4.82
      vertex -15.123 33.579 4.82
    endloop
  endfacet
  facet normal 0 0 1
    outer loop
      vertex 18.21 28.96 4.82
      vertex 18.21 13.13 4.82
      vertex 20 6.7 4.82
    endloop
  endfacet
  facet normal 0 0 1
    outer loop
      vertex -20 40.65 4.82
      vertex -15.123 33.579 4.82
      vertex -13.21 33.96 4.82
    endloop
  endfacet
  facet normal 0 0 1
    outer loop
      vertex 20 40.65 4.82
      vertex -20 40.65 4.82
      vertex 13.21 33.96 4.82
    endloop
  endfacet
  facet normal 0 0 1
    outer loop
      vertex 20 40.65 4.82
      vertex 13.21 33.96 4.82
      vertex 15.123 33.579 4.82
    endloop
  endfacet
  facet normal 0 0 1
    outer loop
      vertex 20 40.65 4.82
      vertex 15.123 33.579 4.82
      vertex 16.746 32.496 4.82
    endloop
  endfacet
  facet normal 0 0 1
    outer loop
      vertex 20 40.65 4.82
      vertex 16.746 32.496 4.82
      vertex 17.829 30.873 4.82
    endloop
  endfacet
  facet normal 0 0 1
    outer loop
      vertex 20 40.65 4.82
      vertex 18.21 28.96 4.82
      vertex 20 6.7 4.82
    endloop
  endfacet
  facet normal 0 0 1
    outer loop
      vertex 20 40.65 4.82
      vertex 17.829 30.873 4.82
      vertex 18.21 28.96 4.82
    endloop
  endfacet
  facet normal 0 0 1
    outer loop
      vertex 18.21 13.13 4.82
      vertex 17.829 11.217 4.82
      vertex 20 6.7 4.82
    endloop
  endfacet
  facet normal 0 0 1
    outer loop
      vertex 17.829 11.217 4.82
      vertex 16.746 9.594 4.82
      vertex 20 6.7 4.82
    endloop
  endfacet
  facet normal 0 0 1
    outer loop
      vertex 15.123 8.511 4.82
      vertex 13.21 8.13 4.82
      vertex 20 6.7 4.82
    endloop
  endfacet
  facet normal 0 0 1
    outer loop
      vertex -15.123 8.511 4.82
      vertex -20 6.7 4.82
      vertex -13.21 8.13 4.82
    endloop
  endfacet
  facet normal 0 0 1
    outer loop
      vertex -16.746 9.594 4.82
      vertex -20 6.7 4.82
      vertex -15.123 8.511 4.82
    endloop
  endfacet
  facet normal 0 0 1
    outer loop
      vertex -17.829 11.217 4.82
      vertex -20 6.7 4.82
      vertex -16.746 9.594 4.82
    endloop
  endfacet
  facet normal 0 0 1
    outer loop
      vertex -18.21 13.13 4.82
      vertex -20 6.7 4.82
      vertex -17.829 11.217 4.82
    endloop
  endfacet
  facet normal 0 0 1
    outer loop
      vertex -13.21 33.96 4.82
      vertex 13.21 33.96 4.82
      vertex -20 40.65 4.82
    endloop
  endfacet
  facet normal 0 0 1
    outer loop
      vertex 16.746 9.594 4.82
      vertex 15.123 8.511 4.82
      vertex 20 6.7 4.82
    endloop
  endfacet
  facet normal 0.980738 0.195327 0
    outer loop
      vertex -18.21 13.13 4.82
      vertex -17.829 11.217 4.82
      vertex -17.829 11.217 4.72
    endloop
  endfacet
  facet normal 0.980738 0.195327 0
    outer loop
      vertex -18.21 13.13 4.72
      vertex -18.21 13.13 4.82
      vertex -17.829 11.217 4.72
    endloop
  endfacet
  facet normal 1 0 0
    outer loop
      vertex -18.21 28.96 4.72
      vertex -18.21 28.96 4.82
      vertex -18.21 13.13 4.82
    endloop
  endfacet
  facet normal 1 0 0
    outer loop
      vertex -18.21 13.13 4.72
      vertex -18.21 28.96 4.72
      vertex -18.21 13.13 4.82
    endloop
  endfacet
  facet normal 0.831814 0.555055 0
    outer loop
      vertex -17.829 11.217 4.82
      vertex -16.746 9.594 4.82
      vertex -16.746 9.594 4.72
    endloop
  endfacet
  facet normal 0.831814 0.555055 0
    outer loop
      vertex -17.829 11.217 4.72
      vertex -17.829 11.217 4.82
      vertex -16.746 9.594 4.72
    endloop
  endfacet
  facet normal 0.555055 0.831814 0
    outer loop
      vertex -15.123 8.511 4.82
      vertex -15.123 8.511 4.72
      vertex -16.746 9.594 4.82
    endloop
  endfacet
  facet normal 0.555055 0.831814 0
    outer loop
      vertex -16.746 9.594 4.82
      vertex -15.123 8.511 4.72
      vertex -16.746 9.594 4.72
    endloop
  endfacet
  facet normal 0.195327 0.980738 0
    outer loop
      vertex -13.21 8.13 4.82
      vertex -13.21 8.13 4.72
      vertex -15.123 8.511 4.82
    endloop
  endfacet
  facet normal 0.195327 0.980738 0
    outer loop
      vertex -15.123 8.511 4.82
      vertex -13.21 8.13 4.72
      vertex -15.123 8.511 4.72
    endloop
  endfacet
  facet normal 0 1 0
    outer loop
      vertex 13.21 8.13 4.82
      vertex 13.21 8.13 4.72
      vertex -13.21 8.13 4.82
    endloop
  endfacet
  facet normal 0 1 0
    outer loop
      vertex -13.21 8.13 4.82
      vertex 13.21 8.13 4.72
      vertex -13.21 8.13 4.72
    endloop
  endfacet
  facet normal -0.195327 0.980738 0
    outer loop
      vertex 15.123 8.511 4.82
      vertex 15.123 8.511 4.72
      vertex 13.21 8.13 4.82
    endloop
  endfacet
  facet normal -0.195327 0.980738 0
    outer loop
      vertex 13.21 8.13 4.82
      vertex 15.123 8.511 4.72
      vertex 13.21 8.13 4.72
    endloop
  endfacet
  facet normal -0.555055 0.831814 0
    outer loop
      vertex 16.746 9.594 4.82
      vertex 16.746 9.594 4.72
      vertex 15.123 8.511 4.82
    endloop
  endfacet
  facet normal -0.555055 0.831814 0
    outer loop
      vertex 15.123 8.511 4.82
      vertex 16.746 9.594 4.72
      vertex 15.123 8.511 4.72
    endloop
  endfacet
  facet normal -0.831814 0.555055 0
    outer loop
      vertex 17.829 11.217 4.82
      vertex 17.829 11.217 4.72
      vertex 16.746 9.594 4.82
    endloop
  endfacet
  facet normal -0.831814 0.555055 0
    outer loop
      vertex 16.746 9.594 4.82
      vertex 17.829 11.217 4.72
      vertex 16.746 9.594 4.72
    endloop
  endfacet
  facet normal -0.980738 0.195327 0
    outer loop
      vertex 18.21 13.13 4.82
      vertex 18.21 13.13 4.72
      vertex 17.829 11.217 4.82
    endloop
  endfacet
  facet normal -0.980738 0.195327 0
    outer loop
      vertex 17.829 11.217 4.82
      vertex 18.21 13.13 4.72
      vertex 17.829 11.217 4.72
    endloop
  endfacet
  facet normal -1 0 0
    outer loop
      vertex 18.21 28.96 4.82
      vertex 18.21 28.96 4.72
      vertex 18.21 13.13 4.82
    endloop
  endfacet
  facet normal -1 0 0
    outer loop
      vertex 18.21 13.13 4.82
      vertex 18.21 28.96 4.72
      vertex 18.21 13.13 4.72
    endloop
  endfacet
  facet normal -0.980738 -0.195327 0
    outer loop
      vertex 18.21 28.96 4.82
      vertex 17.829 30.873 4.82
      vertex 18.21 28.96 4.72
    endloop
  endfacet
  facet normal -0.980738 -0.195327 0
    outer loop
      vertex 18.21 28.96 4.72
      vertex 17.829 30.873 4.82
      vertex 17.829 30.873 4.72
    endloop
  endfacet
  facet normal -0.831814 -0.555055 0
    outer loop
      vertex 17.829 30.873 4.82
      vertex 16.746 32.496 4.82
      vertex 17.829 30.873 4.72
    endloop
  endfacet
  facet normal -0.831814 -0.555055 0
    outer loop
      vertex 17.829 30.873 4.72
      vertex 16.746 32.496 4.82
      vertex 16.746 32.496 4.72
    endloop
  endfacet
  facet normal -0.555055 -0.831814 0
    outer loop
      vertex 16.746 32.496 4.72
      vertex 16.746 32.496 4.82
      vertex 15.123 33.579 4.82
    endloop
  endfacet
  facet normal -0.555055 -0.831814 0
    outer loop
      vertex 15.123 33.579 4.72
      vertex 16.746 32.496 4.72
      vertex 15.123 33.579 4.82
    endloop
  endfacet
  facet normal -0.195327 -0.980738 0
    outer loop
      vertex 15.123 33.579 4.72
      vertex 15.123 33.579 4.82
      vertex 13.21 33.96 4.82
    endloop
  endfacet
  facet normal -0.195327 -0.980738 0
    outer loop
      vertex 13.21 33.96 4.72
      vertex 15.123 33.579 4.72
      vertex 13.21 33.96 4.82
    endloop
  endfacet
  facet normal 0 -1 0
    outer loop
      vertex 13.21 33.96 4.72
      vertex 13.21 33.96 4.82
      vertex -13.21 33.96 4.82
    endloop
  endfacet
  facet normal 0 -1 0
    outer loop
      vertex -13.21 33.96 4.72
      vertex 13.21 33.96 4.72
      vertex -13.21 33.96 4.82
    endloop
  endfacet
  facet normal 0.195327 -0.980738 0
    outer loop
      vertex -13.21 33.96 4.72
      vertex -13.21 33.96 4.82
      vertex -15.123 33.579 4.82
    endloop
  endfacet
  facet normal 0.195327 -0.980738 0
    outer loop
      vertex -15.123 33.579 4.72
      vertex -13.21 33.96 4.72
      vertex -15.123 33.579 4.82
    endloop
  endfacet
  facet normal 0.555055 -0.831814 0
    outer loop
      vertex -15.123 33.579 4.72
      vertex -15.123 33.579 4.82
      vertex -16.746 32.496 4.82
    endloop
  endfacet
  facet normal 0.555055 -0.831814 0
    outer loop
      vertex -16.746 32.496 4.72
      vertex -15.123 33.579 4.72
      vertex -16.746 32.496 4.82
    endloop
  endfacet
  facet normal 0.831814 -0.555055 0
    outer loop
      vertex -16.746 32.496 4.72
      vertex -16.746 32.496 4.82
      vertex -17.829 30.873 4.82
    endloop
  endfacet
  facet normal 0.831814 -0.555055 0
    outer loop
      vertex -17.829 30.873 4.72
      vertex -16.746 32.496 4.72
      vertex -17.829 30.873 4.82
    endloop
  endfacet
  facet normal 0.980738 -0.195327 0
    outer loop
      vertex -17.829 30.873 4.72
      vertex -17.829 30.873 4.82
      vertex -18.21 28.96 4.82
    endloop
  endfacet
  facet normal 0.980738 -0.195327 0
    outer loop
      vertex -18.21 28.96 4.72
      vertex -17.829 30.873 4.72
      vertex -18.21 28.96 4.82
    endloop
  endfacet
  facet normal 0 0 1
    outer loop
      vertex -18.21 28.96 4.72
      vertex -18.21 13.13 4.72
      vertex -17.829 11.217 4.72
    endloop
  endfacet
  facet normal 0 0 1
    outer loop
      vertex -15.123 8.511 4.72
      vertex -18.21 28.96 4.72
      vertex -16.746 9.594 4.72
    endloop
  endfacet
  facet normal 0 0 1
    outer loop
      vertex -16.746 9.594 4.72
      vertex -18.21 28.96 4.72
      vertex -17.829 11.217 4.72
    endloop
  endfacet
  facet normal 0 0 1
    outer loop
      vertex -13.21 8.13 4.72
      vertex -18.21 28.96 4.72
      vertex -15.123 8.511 4.72
    endloop
  endfacet
  facet normal 0 0 1
    outer loop
      vertex 13.21 8.13 4.72
      vertex -18.21 28.96 4.72
      vertex -13.21 8.13 4.72
    endloop
  endfacet
  facet normal 0 0 1
    outer loop
      vertex 15.123 8.511 4.72
      vertex -18.21 28.96 4.72
      vertex 13.21 8.13 4.72
    endloop
  endfacet
  facet normal 0 0 1
    outer loop
      vertex 16.746 9.594 4.72
      vertex -18.21 28.96 4.72
      vertex 15.123 8.511 4.72
    endloop
  endfacet
  facet normal 0 0 1
    outer loop
      vertex 17.829 11.217 4.72
      vertex -18.21 28.96 4.72
      vertex 16.746 9.594 4.72
    endloop
  endfacet
  facet normal 0 0 1
    outer loop
      vertex 18.21 13.13 4.72
      vertex -18.21 28.96 4.72
      vertex 17.829 11.217 4.72
    endloop
  endfacet
  facet normal 0 0 1
    outer loop
      vertex 18.21 28.96 4.72
      vertex -18.21 28.96 4.72
      vertex 18.21 13.13 4.72
    endloop
  endfacet
  facet normal 0 0 1
    outer loop
      vertex 17.829 30.873 4.72
      vertex -18.21 28.96 4.72
      vertex 18.21 28.96 4.72
    endloop
  endfacet
  facet normal 0 0 1
    outer loop
      vertex 16.746 32.496 4.72
      vertex -18.21 28.96 4.72
      vertex 17.829 30.873 4.72
    endloop
  endfacet
  facet normal 0 0 1
    outer loop
      vertex 15.123 33.579 4.72
      vertex -18.21 28.96 4.72
      vertex 16.746 32.496 4.72
    endloop
  endfacet
  facet normal 0 0 1
    outer loop
      vertex 13.21 33.96 4.72
      vertex -18.21 28.96 4.72
      vertex 15.123 33.579 4.72
    endloop
  endfacet
  facet normal 0 0 1
    outer loop
      vertex -13.21 33.96 4.72
      vertex -18.21 28.96 4.72
      vertex 13.21 33.96 4.72
    endloop
  endfacet
  facet normal 0 0 1
    outer loop
      vertex -15.123 33.579 4.72
      vertex -18.21 28.96 4.72
      vertex -13.21 33.96 4.72
    endloop
  endfacet
  facet normal 0 0 1
    outer loop
      vertex -16.746 32.496 4.72
      vertex -18.21 28.96 4.72
      vertex -15.123 33.579 4.72
    endloop
  endfacet
  facet normal 0 0 1
    outer loop
      vertex -17.829 30.873 4.72
      vertex -18.21 28.96 4.72
      vertex -16.746 32.496 4.72
    endloop
  endfacet
endsolid OpenSCAD_Model
