  0
SECTION
  2
BLOCKS
  0
ENDSEC
  0
SECTION
  2
ENTITIES
  0
LINE
  8
0
 10
-21.61
 11
-21.61
 20
0
 21
45.8
  0
LINE
  8
0
 10
-21.61
 11
21.61
 20
45.8
 21
45.8
  0
LINE
  8
0
 10
21.61
 11
21.61
 20
45.8
 21
0
  0
LINE
  8
0
 10
21.61
 11
-21.61
 20
0
 21
0
  0
LINE
  8
0
 10
-19.01
 11
-19.007
 20
2.2
 21
2.307
  0
LINE
  8
0
 10
-19.007
 11
-18.997
 20
2.307
 21
2.413
  0
LINE
  8
0
 10
-18.997
 11
-18.98
 20
2.413
 21
2.519
  0
LINE
  8
0
 10
-18.98
 11
-18.957
 20
2.519
 21
2.623
  0
LINE
  8
0
 10
-18.957
 11
-18.927
 20
2.623
 21
2.725
  0
LINE
  8
0
 10
-18.927
 11
-18.891
 20
2.725
 21
2.826
  0
LINE
  8
0
 10
-18.891
 11
-18.848
 20
2.826
 21
2.924
  0
LINE
  8
0
 10
-18.848
 11
-18.8
 20
2.924
 21
3.019
  0
LINE
  8
0
 10
-18.8
 11
-18.745
 20
3.019
 21
3.111
  0
LINE
  8
0
 10
-18.745
 11
-18.685
 20
3.111
 21
3.199
  0
LINE
  8
0
 10
-18.685
 11
-18.62
 20
3.199
 21
3.284
  0
LINE
  8
0
 10
-18.62
 11
-18.549
 20
3.284
 21
3.364
  0
LINE
  8
0
 10
-18.549
 11
-18.474
 20
3.364
 21
3.439
  0
LINE
  8
0
 10
-18.474
 11
-18.394
 20
3.439
 21
3.51
  0
LINE
  8
0
 10
-18.394
 11
-18.309
 20
3.51
 21
3.575
  0
LINE
  8
0
 10
-18.309
 11
-18.221
 20
3.575
 21
3.635
  0
LINE
  8
0
 10
-18.221
 11
-18.129
 20
3.635
 21
3.69
  0
LINE
  8
0
 10
-18.129
 11
-18.034
 20
3.69
 21
3.738
  0
LINE
  8
0
 10
-18.034
 11
-17.936
 20
3.738
 21
3.781
  0
LINE
  8
0
 10
-17.936
 11
-17.835
 20
3.781
 21
3.817
  0
LINE
  8
0
 10
-17.835
 11
-17.733
 20
3.817
 21
3.847
  0
LINE
  8
0
 10
-17.733
 11
-17.629
 20
3.847
 21
3.87
  0
LINE
  8
0
 10
-17.629
 11
-17.523
 20
3.87
 21
3.887
  0
LINE
  8
0
 10
-17.523
 11
-17.417
 20
3.887
 21
3.897
  0
LINE
  8
0
 10
-17.417
 11
-17.31
 20
3.897
 21
3.9
  0
LINE
  8
0
 10
-17.31
 11
-17.203
 20
3.9
 21
3.897
  0
LINE
  8
0
 10
-17.203
 11
-17.097
 20
3.897
 21
3.887
  0
LINE
  8
0
 10
-17.097
 11
-16.991
 20
3.887
 21
3.87
  0
LINE
  8
0
 10
-16.991
 11
-16.887
 20
3.87
 21
3.847
  0
LINE
  8
0
 10
-16.887
 11
-16.785
 20
3.847
 21
3.817
  0
LINE
  8
0
 10
-16.785
 11
-16.684
 20
3.817
 21
3.781
  0
LINE
  8
0
 10
-16.684
 11
-16.586
 20
3.781
 21
3.738
  0
LINE
  8
0
 10
-16.586
 11
-16.491
 20
3.738
 21
3.69
  0
LINE
  8
0
 10
-16.491
 11
-16.399
 20
3.69
 21
3.635
  0
LINE
  8
0
 10
-16.399
 11
-16.311
 20
3.635
 21
3.575
  0
LINE
  8
0
 10
-16.311
 11
-16.226
 20
3.575
 21
3.51
  0
LINE
  8
0
 10
-16.226
 11
-16.146
 20
3.51
 21
3.439
  0
LINE
  8
0
 10
-16.146
 11
-16.071
 20
3.439
 21
3.364
  0
LINE
  8
0
 10
-16.071
 11
-16
 20
3.364
 21
3.284
  0
LINE
  8
0
 10
-16
 11
-15.935
 20
3.284
 21
3.199
  0
LINE
  8
0
 10
-15.935
 11
-15.875
 20
3.199
 21
3.111
  0
LINE
  8
0
 10
-15.875
 11
-15.82
 20
3.111
 21
3.019
  0
LINE
  8
0
 10
-15.82
 11
-15.772
 20
3.019
 21
2.924
  0
LINE
  8
0
 10
-15.772
 11
-15.729
 20
2.924
 21
2.826
  0
LINE
  8
0
 10
-15.729
 11
-15.693
 20
2.826
 21
2.725
  0
LINE
  8
0
 10
-15.693
 11
-15.663
 20
2.725
 21
2.623
  0
LINE
  8
0
 10
-15.663
 11
-15.64
 20
2.623
 21
2.519
  0
LINE
  8
0
 10
-15.64
 11
-15.623
 20
2.519
 21
2.413
  0
LINE
  8
0
 10
-15.623
 11
-15.613
 20
2.413
 21
2.307
  0
LINE
  8
0
 10
-15.613
 11
-15.61
 20
2.307
 21
2.2
  0
LINE
  8
0
 10
-15.61
 11
-15.613
 20
2.2
 21
2.093
  0
LINE
  8
0
 10
-15.613
 11
-15.623
 20
2.093
 21
1.987
  0
LINE
  8
0
 10
-15.623
 11
-15.64
 20
1.987
 21
1.881
  0
LINE
  8
0
 10
-15.64
 11
-15.663
 20
1.881
 21
1.777
  0
LINE
  8
0
 10
-15.663
 11
-15.693
 20
1.777
 21
1.675
  0
LINE
  8
0
 10
-15.693
 11
-15.729
 20
1.675
 21
1.574
  0
LINE
  8
0
 10
-15.729
 11
-15.772
 20
1.574
 21
1.476
  0
LINE
  8
0
 10
-15.772
 11
-15.82
 20
1.476
 21
1.381
  0
LINE
  8
0
 10
-15.82
 11
-15.875
 20
1.381
 21
1.289
  0
LINE
  8
0
 10
-15.875
 11
-15.935
 20
1.289
 21
1.201
  0
LINE
  8
0
 10
-15.935
 11
-16
 20
1.201
 21
1.116
  0
LINE
  8
0
 10
-16
 11
-16.071
 20
1.116
 21
1.036
  0
LINE
  8
0
 10
-16.071
 11
-16.146
 20
1.036
 21
0.961
  0
LINE
  8
0
 10
-16.146
 11
-16.226
 20
0.961
 21
0.89
  0
LINE
  8
0
 10
-16.226
 11
-16.311
 20
0.89
 21
0.825
  0
LINE
  8
0
 10
-16.311
 11
-16.399
 20
0.825
 21
0.765
  0
LINE
  8
0
 10
-16.399
 11
-16.491
 20
0.765
 21
0.71
  0
LINE
  8
0
 10
-16.491
 11
-16.586
 20
0.71
 21
0.662
  0
LINE
  8
0
 10
-16.586
 11
-16.684
 20
0.662
 21
0.619
  0
LINE
  8
0
 10
-16.684
 11
-16.785
 20
0.619
 21
0.583
  0
LINE
  8
0
 10
-16.785
 11
-16.887
 20
0.583
 21
0.553
  0
LINE
  8
0
 10
-16.887
 11
-16.991
 20
0.553
 21
0.53
  0
LINE
  8
0
 10
-16.991
 11
-17.097
 20
0.53
 21
0.513
  0
LINE
  8
0
 10
-17.097
 11
-17.203
 20
0.513
 21
0.503
  0
LINE
  8
0
 10
-17.203
 11
-17.31
 20
0.503
 21
0.5
  0
LINE
  8
0
 10
-17.31
 11
-17.417
 20
0.5
 21
0.503
  0
LINE
  8
0
 10
-17.417
 11
-17.523
 20
0.503
 21
0.513
  0
LINE
  8
0
 10
-17.523
 11
-17.629
 20
0.513
 21
0.53
  0
LINE
  8
0
 10
-17.629
 11
-17.733
 20
0.53
 21
0.553
  0
LINE
  8
0
 10
-17.733
 11
-17.835
 20
0.553
 21
0.583
  0
LINE
  8
0
 10
-17.835
 11
-17.936
 20
0.583
 21
0.619
  0
LINE
  8
0
 10
-17.936
 11
-18.034
 20
0.619
 21
0.662
  0
LINE
  8
0
 10
-18.034
 11
-18.129
 20
0.662
 21
0.71
  0
LINE
  8
0
 10
-18.129
 11
-18.221
 20
0.71
 21
0.765
  0
LINE
  8
0
 10
-18.221
 11
-18.309
 20
0.765
 21
0.825
  0
LINE
  8
0
 10
-18.309
 11
-18.394
 20
0.825
 21
0.89
  0
LINE
  8
0
 10
-18.394
 11
-18.474
 20
0.89
 21
0.961
  0
LINE
  8
0
 10
-18.474
 11
-18.549
 20
0.961
 21
1.036
  0
LINE
  8
0
 10
-18.549
 11
-18.62
 20
1.036
 21
1.116
  0
LINE
  8
0
 10
-18.62
 11
-18.685
 20
1.116
 21
1.201
  0
LINE
  8
0
 10
-18.685
 11
-18.745
 20
1.201
 21
1.289
  0
LINE
  8
0
 10
-18.745
 11
-18.8
 20
1.289
 21
1.381
  0
LINE
  8
0
 10
-18.8
 11
-18.848
 20
1.381
 21
1.476
  0
LINE
  8
0
 10
-18.848
 11
-18.891
 20
1.476
 21
1.574
  0
LINE
  8
0
 10
-18.891
 11
-18.927
 20
1.574
 21
1.675
  0
LINE
  8
0
 10
-18.927
 11
-18.957
 20
1.675
 21
1.777
  0
LINE
  8
0
 10
-18.957
 11
-18.98
 20
1.777
 21
1.881
  0
LINE
  8
0
 10
-18.98
 11
-18.997
 20
1.881
 21
1.987
  0
LINE
  8
0
 10
-18.997
 11
-19.007
 20
1.987
 21
2.093
  0
LINE
  8
0
 10
-19.007
 11
-19.01
 20
2.093
 21
2.2
  0
LINE
  8
0
 10
-19.01
 11
-19.007
 20
43.1
 21
43.207
  0
LINE
  8
0
 10
-19.007
 11
-18.997
 20
43.207
 21
43.313
  0
LINE
  8
0
 10
-18.997
 11
-18.98
 20
43.313
 21
43.419
  0
LINE
  8
0
 10
-18.98
 11
-18.957
 20
43.419
 21
43.523
  0
LINE
  8
0
 10
-18.957
 11
-18.927
 20
43.523
 21
43.625
  0
LINE
  8
0
 10
-18.927
 11
-18.891
 20
43.625
 21
43.726
  0
LINE
  8
0
 10
-18.891
 11
-18.848
 20
43.726
 21
43.824
  0
LINE
  8
0
 10
-18.848
 11
-18.8
 20
43.824
 21
43.919
  0
LINE
  8
0
 10
-18.8
 11
-18.745
 20
43.919
 21
44.011
  0
LINE
  8
0
 10
-18.745
 11
-18.685
 20
44.011
 21
44.099
  0
LINE
  8
0
 10
-18.685
 11
-18.62
 20
44.099
 21
44.184
  0
LINE
  8
0
 10
-18.62
 11
-18.549
 20
44.184
 21
44.264
  0
LINE
  8
0
 10
-18.549
 11
-18.474
 20
44.264
 21
44.339
  0
LINE
  8
0
 10
-18.474
 11
-18.394
 20
44.339
 21
44.41
  0
LINE
  8
0
 10
-18.394
 11
-18.309
 20
44.41
 21
44.475
  0
LINE
  8
0
 10
-18.309
 11
-18.221
 20
44.475
 21
44.535
  0
LINE
  8
0
 10
-18.221
 11
-18.129
 20
44.535
 21
44.59
  0
LINE
  8
0
 10
-18.129
 11
-18.034
 20
44.59
 21
44.638
  0
LINE
  8
0
 10
-18.034
 11
-17.936
 20
44.638
 21
44.681
  0
LINE
  8
0
 10
-17.936
 11
-17.835
 20
44.681
 21
44.717
  0
LINE
  8
0
 10
-17.835
 11
-17.733
 20
44.717
 21
44.747
  0
LINE
  8
0
 10
-17.733
 11
-17.629
 20
44.747
 21
44.77
  0
LINE
  8
0
 10
-17.629
 11
-17.523
 20
44.77
 21
44.787
  0
LINE
  8
0
 10
-17.523
 11
-17.417
 20
44.787
 21
44.797
  0
LINE
  8
0
 10
-17.417
 11
-17.31
 20
44.797
 21
44.8
  0
LINE
  8
0
 10
-17.31
 11
-17.203
 20
44.8
 21
44.797
  0
LINE
  8
0
 10
-17.203
 11
-17.097
 20
44.797
 21
44.787
  0
LINE
  8
0
 10
-17.097
 11
-16.991
 20
44.787
 21
44.77
  0
LINE
  8
0
 10
-16.991
 11
-16.887
 20
44.77
 21
44.747
  0
LINE
  8
0
 10
-16.887
 11
-16.785
 20
44.747
 21
44.717
  0
LINE
  8
0
 10
-16.785
 11
-16.684
 20
44.717
 21
44.681
  0
LINE
  8
0
 10
-16.684
 11
-16.586
 20
44.681
 21
44.638
  0
LINE
  8
0
 10
-16.586
 11
-16.491
 20
44.638
 21
44.59
  0
LINE
  8
0
 10
-16.491
 11
-16.399
 20
44.59
 21
44.535
  0
LINE
  8
0
 10
-16.399
 11
-16.311
 20
44.535
 21
44.475
  0
LINE
  8
0
 10
-16.311
 11
-16.226
 20
44.475
 21
44.41
  0
LINE
  8
0
 10
-16.226
 11
-16.146
 20
44.41
 21
44.339
  0
LINE
  8
0
 10
-16.146
 11
-16.071
 20
44.339
 21
44.264
  0
LINE
  8
0
 10
-16.071
 11
-16
 20
44.264
 21
44.184
  0
LINE
  8
0
 10
-16
 11
-15.935
 20
44.184
 21
44.099
  0
LINE
  8
0
 10
-15.935
 11
-15.875
 20
44.099
 21
44.011
  0
LINE
  8
0
 10
-15.875
 11
-15.82
 20
44.011
 21
43.919
  0
LINE
  8
0
 10
-15.82
 11
-15.772
 20
43.919
 21
43.824
  0
LINE
  8
0
 10
-15.772
 11
-15.729
 20
43.824
 21
43.726
  0
LINE
  8
0
 10
-15.729
 11
-15.693
 20
43.726
 21
43.625
  0
LINE
  8
0
 10
-15.693
 11
-15.663
 20
43.625
 21
43.523
  0
LINE
  8
0
 10
-15.663
 11
-15.64
 20
43.523
 21
43.419
  0
LINE
  8
0
 10
-15.64
 11
-15.623
 20
43.419
 21
43.313
  0
LINE
  8
0
 10
-15.623
 11
-15.613
 20
43.313
 21
43.207
  0
LINE
  8
0
 10
-15.613
 11
-15.61
 20
43.207
 21
43.1
  0
LINE
  8
0
 10
-15.61
 11
-15.613
 20
43.1
 21
42.993
  0
LINE
  8
0
 10
-15.613
 11
-15.623
 20
42.993
 21
42.887
  0
LINE
  8
0
 10
-15.623
 11
-15.64
 20
42.887
 21
42.781
  0
LINE
  8
0
 10
-15.64
 11
-15.663
 20
42.781
 21
42.677
  0
LINE
  8
0
 10
-15.663
 11
-15.693
 20
42.677
 21
42.575
  0
LINE
  8
0
 10
-15.693
 11
-15.729
 20
42.575
 21
42.474
  0
LINE
  8
0
 10
-15.729
 11
-15.772
 20
42.474
 21
42.376
  0
LINE
  8
0
 10
-15.772
 11
-15.82
 20
42.376
 21
42.281
  0
LINE
  8
0
 10
-15.82
 11
-15.875
 20
42.281
 21
42.189
  0
LINE
  8
0
 10
-15.875
 11
-15.935
 20
42.189
 21
42.101
  0
LINE
  8
0
 10
-15.935
 11
-16
 20
42.101
 21
42.016
  0
LINE
  8
0
 10
-16
 11
-16.071
 20
42.016
 21
41.936
  0
LINE
  8
0
 10
-16.071
 11
-16.146
 20
41.936
 21
41.861
  0
LINE
  8
0
 10
-16.146
 11
-16.226
 20
41.861
 21
41.79
  0
LINE
  8
0
 10
-16.226
 11
-16.311
 20
41.79
 21
41.725
  0
LINE
  8
0
 10
-16.311
 11
-16.399
 20
41.725
 21
41.665
  0
LINE
  8
0
 10
-16.399
 11
-16.491
 20
41.665
 21
41.61
  0
LINE
  8
0
 10
-16.491
 11
-16.586
 20
41.61
 21
41.562
  0
LINE
  8
0
 10
-16.586
 11
-16.684
 20
41.562
 21
41.519
  0
LINE
  8
0
 10
-16.684
 11
-16.785
 20
41.519
 21
41.483
  0
LINE
  8
0
 10
-16.785
 11
-16.887
 20
41.483
 21
41.453
  0
LINE
  8
0
 10
-16.887
 11
-16.991
 20
41.453
 21
41.43
  0
LINE
  8
0
 10
-16.991
 11
-17.097
 20
41.43
 21
41.413
  0
LINE
  8
0
 10
-17.097
 11
-17.203
 20
41.413
 21
41.403
  0
LINE
  8
0
 10
-17.203
 11
-17.31
 20
41.403
 21
41.4
  0
LINE
  8
0
 10
-17.31
 11
-17.417
 20
41.4
 21
41.403
  0
LINE
  8
0
 10
-17.417
 11
-17.523
 20
41.403
 21
41.413
  0
LINE
  8
0
 10
-17.523
 11
-17.629
 20
41.413
 21
41.43
  0
LINE
  8
0
 10
-17.629
 11
-17.733
 20
41.43
 21
41.453
  0
LINE
  8
0
 10
-17.733
 11
-17.835
 20
41.453
 21
41.483
  0
LINE
  8
0
 10
-17.835
 11
-17.936
 20
41.483
 21
41.519
  0
LINE
  8
0
 10
-17.936
 11
-18.034
 20
41.519
 21
41.562
  0
LINE
  8
0
 10
-18.034
 11
-18.129
 20
41.562
 21
41.61
  0
LINE
  8
0
 10
-18.129
 11
-18.221
 20
41.61
 21
41.665
  0
LINE
  8
0
 10
-18.221
 11
-18.309
 20
41.665
 21
41.725
  0
LINE
  8
0
 10
-18.309
 11
-18.394
 20
41.725
 21
41.79
  0
LINE
  8
0
 10
-18.394
 11
-18.474
 20
41.79
 21
41.861
  0
LINE
  8
0
 10
-18.474
 11
-18.549
 20
41.861
 21
41.936
  0
LINE
  8
0
 10
-18.549
 11
-18.62
 20
41.936
 21
42.016
  0
LINE
  8
0
 10
-18.62
 11
-18.685
 20
42.016
 21
42.101
  0
LINE
  8
0
 10
-18.685
 11
-18.745
 20
42.101
 21
42.189
  0
LINE
  8
0
 10
-18.745
 11
-18.8
 20
42.189
 21
42.281
  0
LINE
  8
0
 10
-18.8
 11
-18.848
 20
42.281
 21
42.376
  0
LINE
  8
0
 10
-18.848
 11
-18.891
 20
42.376
 21
42.474
  0
LINE
  8
0
 10
-18.891
 11
-18.927
 20
42.474
 21
42.575
  0
LINE
  8
0
 10
-18.927
 11
-18.957
 20
42.575
 21
42.677
  0
LINE
  8
0
 10
-18.957
 11
-18.98
 20
42.677
 21
42.781
  0
LINE
  8
0
 10
-18.98
 11
-18.997
 20
42.781
 21
42.887
  0
LINE
  8
0
 10
-18.997
 11
-19.007
 20
42.887
 21
42.993
  0
LINE
  8
0
 10
-19.007
 11
-19.01
 20
42.993
 21
43.1
  0
LINE
  8
0
 10
-10.78
 11
-10.78
 20
3.11
 21
3.71
  0
LINE
  8
0
 10
-10.78
 11
-10.18
 20
3.71
 21
3.71
  0
LINE
  8
0
 10
-10.18
 11
-10.18
 20
3.71
 21
3.11
  0
LINE
  8
0
 10
-10.18
 11
-10.78
 20
3.11
 21
3.11
  0
LINE
  8
0
 10
-8.24
 11
-8.24
 20
3.11
 21
3.71
  0
LINE
  8
0
 10
-8.24
 11
-7.64
 20
3.71
 21
3.71
  0
LINE
  8
0
 10
-7.64
 11
-7.64
 20
3.71
 21
3.11
  0
LINE
  8
0
 10
-7.64
 11
-8.24
 20
3.11
 21
3.11
  0
LINE
  8
0
 10
-5.7
 11
-5.7
 20
3.11
 21
3.71
  0
LINE
  8
0
 10
-5.7
 11
-5.1
 20
3.71
 21
3.71
  0
LINE
  8
0
 10
-5.1
 11
-5.1
 20
3.71
 21
3.11
  0
LINE
  8
0
 10
-5.1
 11
-5.7
 20
3.11
 21
3.11
  0
LINE
  8
0
 10
-3.16
 11
-3.16
 20
3.11
 21
3.71
  0
LINE
  8
0
 10
-3.16
 11
-2.56
 20
3.71
 21
3.71
  0
LINE
  8
0
 10
-2.56
 11
-2.56
 20
3.71
 21
3.11
  0
LINE
  8
0
 10
-2.56
 11
-3.16
 20
3.11
 21
3.11
  0
LINE
  8
0
 10
-0.62
 11
-0.62
 20
3.11
 21
3.71
  0
LINE
  8
0
 10
-0.62
 11
-0.02
 20
3.71
 21
3.71
  0
LINE
  8
0
 10
-0.02
 11
-0.02
 20
3.71
 21
3.11
  0
LINE
  8
0
 10
-0.02
 11
-0.62
 20
3.11
 21
3.11
  0
LINE
  8
0
 10
1.92
 11
1.92
 20
3.11
 21
3.71
  0
LINE
  8
0
 10
1.92
 11
2.52
 20
3.71
 21
3.71
  0
LINE
  8
0
 10
2.52
 11
2.52
 20
3.71
 21
3.11
  0
LINE
  8
0
 10
2.52
 11
1.92
 20
3.11
 21
3.11
  0
LINE
  8
0
 10
4.46
 11
4.46
 20
3.11
 21
3.71
  0
LINE
  8
0
 10
4.46
 11
5.06
 20
3.71
 21
3.71
  0
LINE
  8
0
 10
5.06
 11
5.06
 20
3.71
 21
3.11
  0
LINE
  8
0
 10
5.06
 11
4.46
 20
3.11
 21
3.11
  0
LINE
  8
0
 10
7
 11
7
 20
3.11
 21
3.71
  0
LINE
  8
0
 10
7
 11
7.6
 20
3.71
 21
3.71
  0
LINE
  8
0
 10
7.6
 11
7.6
 20
3.71
 21
3.11
  0
LINE
  8
0
 10
7.6
 11
7
 20
3.11
 21
3.11
  0
LINE
  8
0
 10
15.61
 11
15.613
 20
2.2
 21
2.307
  0
LINE
  8
0
 10
15.613
 11
15.623
 20
2.307
 21
2.413
  0
LINE
  8
0
 10
15.623
 11
15.64
 20
2.413
 21
2.519
  0
LINE
  8
0
 10
15.64
 11
15.663
 20
2.519
 21
2.623
  0
LINE
  8
0
 10
15.663
 11
15.693
 20
2.623
 21
2.725
  0
LINE
  8
0
 10
15.693
 11
15.729
 20
2.725
 21
2.826
  0
LINE
  8
0
 10
15.729
 11
15.772
 20
2.826
 21
2.924
  0
LINE
  8
0
 10
15.772
 11
15.82
 20
2.924
 21
3.019
  0
LINE
  8
0
 10
15.82
 11
15.875
 20
3.019
 21
3.111
  0
LINE
  8
0
 10
15.875
 11
15.935
 20
3.111
 21
3.199
  0
LINE
  8
0
 10
15.935
 11
16
 20
3.199
 21
3.284
  0
LINE
  8
0
 10
16
 11
16.071
 20
3.284
 21
3.364
  0
LINE
  8
0
 10
16.071
 11
16.146
 20
3.364
 21
3.439
  0
LINE
  8
0
 10
16.146
 11
16.226
 20
3.439
 21
3.51
  0
LINE
  8
0
 10
16.226
 11
16.311
 20
3.51
 21
3.575
  0
LINE
  8
0
 10
16.311
 11
16.399
 20
3.575
 21
3.635
  0
LINE
  8
0
 10
16.399
 11
16.491
 20
3.635
 21
3.69
  0
LINE
  8
0
 10
16.491
 11
16.586
 20
3.69
 21
3.738
  0
LINE
  8
0
 10
16.586
 11
16.684
 20
3.738
 21
3.781
  0
LINE
  8
0
 10
16.684
 11
16.785
 20
3.781
 21
3.817
  0
LINE
  8
0
 10
16.785
 11
16.887
 20
3.817
 21
3.847
  0
LINE
  8
0
 10
16.887
 11
16.991
 20
3.847
 21
3.87
  0
LINE
  8
0
 10
16.991
 11
17.097
 20
3.87
 21
3.887
  0
LINE
  8
0
 10
17.097
 11
17.203
 20
3.887
 21
3.897
  0
LINE
  8
0
 10
17.203
 11
17.31
 20
3.897
 21
3.9
  0
LINE
  8
0
 10
17.31
 11
17.417
 20
3.9
 21
3.897
  0
LINE
  8
0
 10
17.417
 11
17.523
 20
3.897
 21
3.887
  0
LINE
  8
0
 10
17.523
 11
17.629
 20
3.887
 21
3.87
  0
LINE
  8
0
 10
17.629
 11
17.733
 20
3.87
 21
3.847
  0
LINE
  8
0
 10
17.733
 11
17.835
 20
3.847
 21
3.817
  0
LINE
  8
0
 10
17.835
 11
17.936
 20
3.817
 21
3.781
  0
LINE
  8
0
 10
17.936
 11
18.034
 20
3.781
 21
3.738
  0
LINE
  8
0
 10
18.034
 11
18.129
 20
3.738
 21
3.69
  0
LINE
  8
0
 10
18.129
 11
18.221
 20
3.69
 21
3.635
  0
LINE
  8
0
 10
18.221
 11
18.309
 20
3.635
 21
3.575
  0
LINE
  8
0
 10
18.309
 11
18.394
 20
3.575
 21
3.51
  0
LINE
  8
0
 10
18.394
 11
18.474
 20
3.51
 21
3.439
  0
LINE
  8
0
 10
18.474
 11
18.549
 20
3.439
 21
3.364
  0
LINE
  8
0
 10
18.549
 11
18.62
 20
3.364
 21
3.284
  0
LINE
  8
0
 10
18.62
 11
18.685
 20
3.284
 21
3.199
  0
LINE
  8
0
 10
18.685
 11
18.745
 20
3.199
 21
3.111
  0
LINE
  8
0
 10
18.745
 11
18.8
 20
3.111
 21
3.019
  0
LINE
  8
0
 10
18.8
 11
18.848
 20
3.019
 21
2.924
  0
LINE
  8
0
 10
18.848
 11
18.891
 20
2.924
 21
2.826
  0
LINE
  8
0
 10
18.891
 11
18.927
 20
2.826
 21
2.725
  0
LINE
  8
0
 10
18.927
 11
18.957
 20
2.725
 21
2.623
  0
LINE
  8
0
 10
18.957
 11
18.98
 20
2.623
 21
2.519
  0
LINE
  8
0
 10
18.98
 11
18.997
 20
2.519
 21
2.413
  0
LINE
  8
0
 10
18.997
 11
19.007
 20
2.413
 21
2.307
  0
LINE
  8
0
 10
19.007
 11
19.01
 20
2.307
 21
2.2
  0
LINE
  8
0
 10
19.01
 11
19.007
 20
2.2
 21
2.093
  0
LINE
  8
0
 10
19.007
 11
18.997
 20
2.093
 21
1.987
  0
LINE
  8
0
 10
18.997
 11
18.98
 20
1.987
 21
1.881
  0
LINE
  8
0
 10
18.98
 11
18.957
 20
1.881
 21
1.777
  0
LINE
  8
0
 10
18.957
 11
18.927
 20
1.777
 21
1.675
  0
LINE
  8
0
 10
18.927
 11
18.891
 20
1.675
 21
1.574
  0
LINE
  8
0
 10
18.891
 11
18.848
 20
1.574
 21
1.476
  0
LINE
  8
0
 10
18.848
 11
18.8
 20
1.476
 21
1.381
  0
LINE
  8
0
 10
18.8
 11
18.745
 20
1.381
 21
1.289
  0
LINE
  8
0
 10
18.745
 11
18.685
 20
1.289
 21
1.201
  0
LINE
  8
0
 10
18.685
 11
18.62
 20
1.201
 21
1.116
  0
LINE
  8
0
 10
18.62
 11
18.549
 20
1.116
 21
1.036
  0
LINE
  8
0
 10
18.549
 11
18.474
 20
1.036
 21
0.961
  0
LINE
  8
0
 10
18.474
 11
18.394
 20
0.961
 21
0.89
  0
LINE
  8
0
 10
18.394
 11
18.309
 20
0.89
 21
0.825
  0
LINE
  8
0
 10
18.309
 11
18.221
 20
0.825
 21
0.765
  0
LINE
  8
0
 10
18.221
 11
18.129
 20
0.765
 21
0.71
  0
LINE
  8
0
 10
18.129
 11
18.034
 20
0.71
 21
0.662
  0
LINE
  8
0
 10
18.034
 11
17.936
 20
0.662
 21
0.619
  0
LINE
  8
0
 10
17.936
 11
17.835
 20
0.619
 21
0.583
  0
LINE
  8
0
 10
17.835
 11
17.733
 20
0.583
 21
0.553
  0
LINE
  8
0
 10
17.733
 11
17.629
 20
0.553
 21
0.53
  0
LINE
  8
0
 10
17.629
 11
17.523
 20
0.53
 21
0.513
  0
LINE
  8
0
 10
17.523
 11
17.417
 20
0.513
 21
0.503
  0
LINE
  8
0
 10
17.417
 11
17.31
 20
0.503
 21
0.5
  0
LINE
  8
0
 10
17.31
 11
17.203
 20
0.5
 21
0.503
  0
LINE
  8
0
 10
17.203
 11
17.097
 20
0.503
 21
0.513
  0
LINE
  8
0
 10
17.097
 11
16.991
 20
0.513
 21
0.53
  0
LINE
  8
0
 10
16.991
 11
16.887
 20
0.53
 21
0.553
  0
LINE
  8
0
 10
16.887
 11
16.785
 20
0.553
 21
0.583
  0
LINE
  8
0
 10
16.785
 11
16.684
 20
0.583
 21
0.619
  0
LINE
  8
0
 10
16.684
 11
16.586
 20
0.619
 21
0.662
  0
LINE
  8
0
 10
16.586
 11
16.491
 20
0.662
 21
0.71
  0
LINE
  8
0
 10
16.491
 11
16.399
 20
0.71
 21
0.765
  0
LINE
  8
0
 10
16.399
 11
16.311
 20
0.765
 21
0.825
  0
LINE
  8
0
 10
16.311
 11
16.226
 20
0.825
 21
0.89
  0
LINE
  8
0
 10
16.226
 11
16.146
 20
0.89
 21
0.961
  0
LINE
  8
0
 10
16.146
 11
16.071
 20
0.961
 21
1.036
  0
LINE
  8
0
 10
16.071
 11
16
 20
1.036
 21
1.116
  0
LINE
  8
0
 10
16
 11
15.935
 20
1.116
 21
1.201
  0
LINE
  8
0
 10
15.935
 11
15.875
 20
1.201
 21
1.289
  0
LINE
  8
0
 10
15.875
 11
15.82
 20
1.289
 21
1.381
  0
LINE
  8
0
 10
15.82
 11
15.772
 20
1.381
 21
1.476
  0
LINE
  8
0
 10
15.772
 11
15.729
 20
1.476
 21
1.574
  0
LINE
  8
0
 10
15.729
 11
15.693
 20
1.574
 21
1.675
  0
LINE
  8
0
 10
15.693
 11
15.663
 20
1.675
 21
1.777
  0
LINE
  8
0
 10
15.663
 11
15.64
 20
1.777
 21
1.881
  0
LINE
  8
0
 10
15.64
 11
15.623
 20
1.881
 21
1.987
  0
LINE
  8
0
 10
15.623
 11
15.613
 20
1.987
 21
2.093
  0
LINE
  8
0
 10
15.613
 11
15.61
 20
2.093
 21
2.2
  0
LINE
  8
0
 10
15.61
 11
15.613
 20
43.1
 21
43.207
  0
LINE
  8
0
 10
15.613
 11
15.623
 20
43.207
 21
43.313
  0
LINE
  8
0
 10
15.623
 11
15.64
 20
43.313
 21
43.419
  0
LINE
  8
0
 10
15.64
 11
15.663
 20
43.419
 21
43.523
  0
LINE
  8
0
 10
15.663
 11
15.693
 20
43.523
 21
43.625
  0
LINE
  8
0
 10
15.693
 11
15.729
 20
43.625
 21
43.726
  0
LINE
  8
0
 10
15.729
 11
15.772
 20
43.726
 21
43.824
  0
LINE
  8
0
 10
15.772
 11
15.82
 20
43.824
 21
43.919
  0
LINE
  8
0
 10
15.82
 11
15.875
 20
43.919
 21
44.011
  0
LINE
  8
0
 10
15.875
 11
15.935
 20
44.011
 21
44.099
  0
LINE
  8
0
 10
15.935
 11
16
 20
44.099
 21
44.184
  0
LINE
  8
0
 10
16
 11
16.071
 20
44.184
 21
44.264
  0
LINE
  8
0
 10
16.071
 11
16.146
 20
44.264
 21
44.339
  0
LINE
  8
0
 10
16.146
 11
16.226
 20
44.339
 21
44.41
  0
LINE
  8
0
 10
16.226
 11
16.311
 20
44.41
 21
44.475
  0
LINE
  8
0
 10
16.311
 11
16.399
 20
44.475
 21
44.535
  0
LINE
  8
0
 10
16.399
 11
16.491
 20
44.535
 21
44.59
  0
LINE
  8
0
 10
16.491
 11
16.586
 20
44.59
 21
44.638
  0
LINE
  8
0
 10
16.586
 11
16.684
 20
44.638
 21
44.681
  0
LINE
  8
0
 10
16.684
 11
16.785
 20
44.681
 21
44.717
  0
LINE
  8
0
 10
16.785
 11
16.887
 20
44.717
 21
44.747
  0
LINE
  8
0
 10
16.887
 11
16.991
 20
44.747
 21
44.77
  0
LINE
  8
0
 10
16.991
 11
17.097
 20
44.77
 21
44.787
  0
LINE
  8
0
 10
17.097
 11
17.203
 20
44.787
 21
44.797
  0
LINE
  8
0
 10
17.203
 11
17.31
 20
44.797
 21
44.8
  0
LINE
  8
0
 10
17.31
 11
17.417
 20
44.8
 21
44.797
  0
LINE
  8
0
 10
17.417
 11
17.523
 20
44.797
 21
44.787
  0
LINE
  8
0
 10
17.523
 11
17.629
 20
44.787
 21
44.77
  0
LINE
  8
0
 10
17.629
 11
17.733
 20
44.77
 21
44.747
  0
LINE
  8
0
 10
17.733
 11
17.835
 20
44.747
 21
44.717
  0
LINE
  8
0
 10
17.835
 11
17.936
 20
44.717
 21
44.681
  0
LINE
  8
0
 10
17.936
 11
18.034
 20
44.681
 21
44.638
  0
LINE
  8
0
 10
18.034
 11
18.129
 20
44.638
 21
44.59
  0
LINE
  8
0
 10
18.129
 11
18.221
 20
44.59
 21
44.535
  0
LINE
  8
0
 10
18.221
 11
18.309
 20
44.535
 21
44.475
  0
LINE
  8
0
 10
18.309
 11
18.394
 20
44.475
 21
44.41
  0
LINE
  8
0
 10
18.394
 11
18.474
 20
44.41
 21
44.339
  0
LINE
  8
0
 10
18.474
 11
18.549
 20
44.339
 21
44.264
  0
LINE
  8
0
 10
18.549
 11
18.62
 20
44.264
 21
44.184
  0
LINE
  8
0
 10
18.62
 11
18.685
 20
44.184
 21
44.099
  0
LINE
  8
0
 10
18.685
 11
18.745
 20
44.099
 21
44.011
  0
LINE
  8
0
 10
18.745
 11
18.8
 20
44.011
 21
43.919
  0
LINE
  8
0
 10
18.8
 11
18.848
 20
43.919
 21
43.824
  0
LINE
  8
0
 10
18.848
 11
18.891
 20
43.824
 21
43.726
  0
LINE
  8
0
 10
18.891
 11
18.927
 20
43.726
 21
43.625
  0
LINE
  8
0
 10
18.927
 11
18.957
 20
43.625
 21
43.523
  0
LINE
  8
0
 10
18.957
 11
18.98
 20
43.523
 21
43.419
  0
LINE
  8
0
 10
18.98
 11
18.997
 20
43.419
 21
43.313
  0
LINE
  8
0
 10
18.997
 11
19.007
 20
43.313
 21
43.207
  0
LINE
  8
0
 10
19.007
 11
19.01
 20
43.207
 21
43.1
  0
LINE
  8
0
 10
19.01
 11
19.007
 20
43.1
 21
42.993
  0
LINE
  8
0
 10
19.007
 11
18.997
 20
42.993
 21
42.887
  0
LINE
  8
0
 10
18.997
 11
18.98
 20
42.887
 21
42.781
  0
LINE
  8
0
 10
18.98
 11
18.957
 20
42.781
 21
42.677
  0
LINE
  8
0
 10
18.957
 11
18.927
 20
42.677
 21
42.575
  0
LINE
  8
0
 10
18.927
 11
18.891
 20
42.575
 21
42.474
  0
LINE
  8
0
 10
18.891
 11
18.848
 20
42.474
 21
42.376
  0
LINE
  8
0
 10
18.848
 11
18.8
 20
42.376
 21
42.281
  0
LINE
  8
0
 10
18.8
 11
18.745
 20
42.281
 21
42.189
  0
LINE
  8
0
 10
18.745
 11
18.685
 20
42.189
 21
42.101
  0
LINE
  8
0
 10
18.685
 11
18.62
 20
42.101
 21
42.016
  0
LINE
  8
0
 10
18.62
 11
18.549
 20
42.016
 21
41.936
  0
LINE
  8
0
 10
18.549
 11
18.474
 20
41.936
 21
41.861
  0
LINE
  8
0
 10
18.474
 11
18.394
 20
41.861
 21
41.79
  0
LINE
  8
0
 10
18.394
 11
18.309
 20
41.79
 21
41.725
  0
LINE
  8
0
 10
18.309
 11
18.221
 20
41.725
 21
41.665
  0
LINE
  8
0
 10
18.221
 11
18.129
 20
41.665
 21
41.61
  0
LINE
  8
0
 10
18.129
 11
18.034
 20
41.61
 21
41.562
  0
LINE
  8
0
 10
18.034
 11
17.936
 20
41.562
 21
41.519
  0
LINE
  8
0
 10
17.936
 11
17.835
 20
41.519
 21
41.483
  0
LINE
  8
0
 10
17.835
 11
17.733
 20
41.483
 21
41.453
  0
LINE
  8
0
 10
17.733
 11
17.629
 20
41.453
 21
41.43
  0
LINE
  8
0
 10
17.629
 11
17.523
 20
41.43
 21
41.413
  0
LINE
  8
0
 10
17.523
 11
17.417
 20
41.413
 21
41.403
  0
LINE
  8
0
 10
17.417
 11
17.31
 20
41.403
 21
41.4
  0
LINE
  8
0
 10
17.31
 11
17.203
 20
41.4
 21
41.403
  0
LINE
  8
0
 10
17.203
 11
17.097
 20
41.403
 21
41.413
  0
LINE
  8
0
 10
17.097
 11
16.991
 20
41.413
 21
41.43
  0
LINE
  8
0
 10
16.991
 11
16.887
 20
41.43
 21
41.453
  0
LINE
  8
0
 10
16.887
 11
16.785
 20
41.453
 21
41.483
  0
LINE
  8
0
 10
16.785
 11
16.684
 20
41.483
 21
41.519
  0
LINE
  8
0
 10
16.684
 11
16.586
 20
41.519
 21
41.562
  0
LINE
  8
0
 10
16.586
 11
16.491
 20
41.562
 21
41.61
  0
LINE
  8
0
 10
16.491
 11
16.399
 20
41.61
 21
41.665
  0
LINE
  8
0
 10
16.399
 11
16.311
 20
41.665
 21
41.725
  0
LINE
  8
0
 10
16.311
 11
16.226
 20
41.725
 21
41.79
  0
LINE
  8
0
 10
16.226
 11
16.146
 20
41.79
 21
41.861
  0
LINE
  8
0
 10
16.146
 11
16.071
 20
41.861
 21
41.936
  0
LINE
  8
0
 10
16.071
 11
16
 20
41.936
 21
42.016
  0
LINE
  8
0
 10
16
 11
15.935
 20
42.016
 21
42.101
  0
LINE
  8
0
 10
15.935
 11
15.875
 20
42.101
 21
42.189
  0
LINE
  8
0
 10
15.875
 11
15.82
 20
42.189
 21
42.281
  0
LINE
  8
0
 10
15.82
 11
15.772
 20
42.281
 21
42.376
  0
LINE
  8
0
 10
15.772
 11
15.729
 20
42.376
 21
42.474
  0
LINE
  8
0
 10
15.729
 11
15.693
 20
42.474
 21
42.575
  0
LINE
  8
0
 10
15.693
 11
15.663
 20
42.575
 21
42.677
  0
LINE
  8
0
 10
15.663
 11
15.64
 20
42.677
 21
42.781
  0
LINE
  8
0
 10
15.64
 11
15.623
 20
42.781
 21
42.887
  0
LINE
  8
0
 10
15.623
 11
15.613
 20
42.887
 21
42.993
  0
LINE
  8
0
 10
15.613
 11
15.61
 20
42.993
 21
43.1
  0
ENDSEC
  0
SECTION
  2
OBJECTS
  0
DICTIONARY
  0
ENDSEC
  0
EOF
