G04 #@! TF.FileFunction,Profile,NP*
%FSLAX46Y46*%
G04 Gerber Fmt 4.6, Leading zero omitted, Abs format (unit mm)*
G04 Created by KiCad (PCBNEW 4.0.2-4+6225~38~ubuntu14.04.1-stable) date Tue 08 Mar 2016 14:25:17 CET*
%MOMM*%
G01*
G04 APERTURE LIST*
%ADD10C,0.150000*%
%ADD11C,0.254000*%
G04 APERTURE END LIST*
D10*
D11*
X235712000Y-176530000D02*
X241046000Y-176530000D01*
X242062000Y-176530000D02*
X241046000Y-176530000D01*
X242062000Y-152654000D02*
X242062000Y-176530000D01*
X242062000Y-133350000D02*
X235712000Y-133350000D01*
X242062000Y-152654000D02*
X242062000Y-133350000D01*
X179070000Y-125222000D02*
X179324000Y-125222000D01*
X179070000Y-133350000D02*
X179070000Y-125222000D01*
X179070000Y-184658000D02*
X179070000Y-133350000D01*
X194818000Y-184658000D02*
X179070000Y-184658000D01*
X194818000Y-176530000D02*
X194818000Y-184658000D01*
X201676000Y-176530000D02*
X194818000Y-176530000D01*
X201676000Y-184658000D02*
X201676000Y-176530000D01*
X235712000Y-184658000D02*
X201676000Y-184658000D01*
X235712000Y-176530000D02*
X235712000Y-184658000D01*
X235712000Y-125222000D02*
X235712000Y-133350000D01*
X201676000Y-125222000D02*
X235712000Y-125222000D01*
X201676000Y-133350000D02*
X201676000Y-125222000D01*
X194818000Y-133350000D02*
X201676000Y-133350000D01*
X194818000Y-125222000D02*
X194818000Y-133350000D01*
X179324000Y-125222000D02*
X194818000Y-125222000D01*
M02*
