G04 #@! TF.FileFunction,Legend,Bot*
%FSLAX46Y46*%
G04 Gerber Fmt 4.6, Leading zero omitted, Abs format (unit mm)*
G04 Created by KiCad (PCBNEW 4.0.2-4+6225~38~ubuntu14.04.1-stable) date Tue 08 Mar 2016 14:25:17 CET*
%MOMM*%
G01*
G04 APERTURE LIST*
%ADD10C,0.150000*%
G04 APERTURE END LIST*
D10*
X200977237Y-134120000D02*
X201072475Y-134072381D01*
X201215332Y-134072381D01*
X201358190Y-134120000D01*
X201453428Y-134215238D01*
X201501047Y-134310476D01*
X201548666Y-134500952D01*
X201548666Y-134643810D01*
X201501047Y-134834286D01*
X201453428Y-134929524D01*
X201358190Y-135024762D01*
X201215332Y-135072381D01*
X201120094Y-135072381D01*
X200977237Y-135024762D01*
X200929618Y-134977143D01*
X200929618Y-134643810D01*
X201120094Y-134643810D01*
X200501047Y-135072381D02*
X200501047Y-134072381D01*
X200120094Y-134072381D01*
X200024856Y-134120000D01*
X199977237Y-134167619D01*
X199929618Y-134262857D01*
X199929618Y-134405714D01*
X199977237Y-134500952D01*
X200024856Y-134548571D01*
X200120094Y-134596190D01*
X200501047Y-134596190D01*
X199501047Y-135072381D02*
X199501047Y-134072381D01*
X198834381Y-134072381D02*
X198643904Y-134072381D01*
X198548666Y-134120000D01*
X198453428Y-134215238D01*
X198405809Y-134405714D01*
X198405809Y-134739048D01*
X198453428Y-134929524D01*
X198548666Y-135024762D01*
X198643904Y-135072381D01*
X198834381Y-135072381D01*
X198929619Y-135024762D01*
X199024857Y-134929524D01*
X199072476Y-134739048D01*
X199072476Y-134405714D01*
X199024857Y-134215238D01*
X198929619Y-134120000D01*
X198834381Y-134072381D01*
X197977238Y-134691429D02*
X197215333Y-134691429D01*
X196215333Y-135072381D02*
X196786762Y-135072381D01*
X196501048Y-135072381D02*
X196501048Y-134072381D01*
X196596286Y-134215238D01*
X196691524Y-134310476D01*
X196786762Y-134358095D01*
X201485237Y-172982000D02*
X201580475Y-172934381D01*
X201723332Y-172934381D01*
X201866190Y-172982000D01*
X201961428Y-173077238D01*
X202009047Y-173172476D01*
X202056666Y-173362952D01*
X202056666Y-173505810D01*
X202009047Y-173696286D01*
X201961428Y-173791524D01*
X201866190Y-173886762D01*
X201723332Y-173934381D01*
X201628094Y-173934381D01*
X201485237Y-173886762D01*
X201437618Y-173839143D01*
X201437618Y-173505810D01*
X201628094Y-173505810D01*
X201009047Y-173934381D02*
X201009047Y-172934381D01*
X200628094Y-172934381D01*
X200532856Y-172982000D01*
X200485237Y-173029619D01*
X200437618Y-173124857D01*
X200437618Y-173267714D01*
X200485237Y-173362952D01*
X200532856Y-173410571D01*
X200628094Y-173458190D01*
X201009047Y-173458190D01*
X200009047Y-173934381D02*
X200009047Y-172934381D01*
X199342381Y-172934381D02*
X199151904Y-172934381D01*
X199056666Y-172982000D01*
X198961428Y-173077238D01*
X198913809Y-173267714D01*
X198913809Y-173601048D01*
X198961428Y-173791524D01*
X199056666Y-173886762D01*
X199151904Y-173934381D01*
X199342381Y-173934381D01*
X199437619Y-173886762D01*
X199532857Y-173791524D01*
X199580476Y-173601048D01*
X199580476Y-173267714D01*
X199532857Y-173077238D01*
X199437619Y-172982000D01*
X199342381Y-172934381D01*
X198485238Y-173553429D02*
X197723333Y-173553429D01*
X197294762Y-173029619D02*
X197247143Y-172982000D01*
X197151905Y-172934381D01*
X196913809Y-172934381D01*
X196818571Y-172982000D01*
X196770952Y-173029619D01*
X196723333Y-173124857D01*
X196723333Y-173220095D01*
X196770952Y-173362952D01*
X197342381Y-173934381D01*
X196723333Y-173934381D01*
M02*
