G04 #@! TF.FileFunction,Copper,L1,Top,Signal*
%FSLAX46Y46*%
G04 Gerber Fmt 4.6, Leading zero omitted, Abs format (unit mm)*
G04 Created by KiCad (PCBNEW 4.0.2-4+6225~38~ubuntu14.04.1-stable) date Tue 08 Mar 2016 14:25:17 CET*
%MOMM*%
G01*
G04 APERTURE LIST*
%ADD10C,0.150000*%
%ADD11C,1.524000*%
%ADD12O,3.048000X1.727200*%
%ADD13C,0.889000*%
%ADD14C,0.254000*%
G04 APERTURE END LIST*
D10*
D11*
X221716600Y-165570400D03*
X221716600Y-163030400D03*
X221716600Y-160490400D03*
X221716600Y-157950400D03*
X221716600Y-155410400D03*
X221716600Y-152870400D03*
X221716600Y-150330400D03*
X221716600Y-147790400D03*
D12*
X239268000Y-139700000D03*
X239268000Y-144780000D03*
X226568000Y-139700000D03*
X226568000Y-144780000D03*
X239268000Y-152400000D03*
X239268000Y-157480000D03*
X226568000Y-152400000D03*
X226568000Y-157480000D03*
X239268000Y-165100000D03*
X239268000Y-170180000D03*
X226568000Y-165100000D03*
X226568000Y-170180000D03*
D13*
X204216000Y-130586300D03*
X224536000Y-134620000D03*
X218186000Y-134620000D03*
D14*
X221716600Y-147790400D02*
X221717000Y-147790000D01*
X221307000Y-148200000D02*
X221511800Y-147995200D01*
X221511800Y-147995200D02*
X221716600Y-147790400D01*
X220567500Y-161881300D02*
X221716600Y-163030400D01*
X220567500Y-152391700D02*
X220567500Y-161881300D01*
X221358800Y-151600400D02*
X220567500Y-152391700D01*
X222144300Y-151600400D02*
X221358800Y-151600400D01*
X222930300Y-150814400D02*
X222144300Y-151600400D01*
X222930300Y-149413700D02*
X222930300Y-150814400D01*
X221511800Y-147995200D02*
X222930300Y-149413700D01*
X226568000Y-170180000D02*
X239268000Y-170180000D01*
X239268000Y-144780000D02*
X226568000Y-144780000D01*
X226568000Y-144780000D02*
X226568000Y-143986700D01*
X226568000Y-143986700D02*
X226568000Y-143961000D01*
X215363000Y-130586300D02*
X204216000Y-130586300D01*
X219185200Y-134408500D02*
X215363000Y-130586300D01*
X219185200Y-136603900D02*
X219185200Y-134408500D01*
X226568000Y-143986700D02*
X219185200Y-136603900D01*
X221678000Y-155448000D02*
X221697500Y-155429000D01*
X221698000Y-155429000D02*
X221716600Y-155410400D01*
X221697500Y-155429000D02*
X221698000Y-155429000D01*
X221697500Y-155429000D02*
X221717000Y-155410000D01*
X231607700Y-134620000D02*
X224536000Y-134620000D01*
X241197100Y-144209400D02*
X231607700Y-134620000D01*
X241197100Y-145324500D02*
X241197100Y-144209400D01*
X238980100Y-147541500D02*
X241197100Y-145324500D01*
X228950900Y-147541500D02*
X238980100Y-147541500D01*
X221717000Y-154775400D02*
X228950900Y-147541500D01*
X221717000Y-155410000D02*
X221717000Y-154775400D01*
X226568000Y-152400000D02*
X239268000Y-152400000D01*
X239268000Y-165100000D02*
X226568000Y-165100000D01*
X221512000Y-150125500D02*
X221717000Y-150330000D01*
X221716600Y-150330100D02*
X221716600Y-150330400D01*
X221512000Y-150125500D02*
X221716600Y-150330100D01*
X221307000Y-149921000D02*
X221512000Y-150125500D01*
X218186000Y-146800000D02*
X221307000Y-149921000D01*
X218186000Y-134620000D02*
X218186000Y-146800000D01*
M02*
