M48
INCH,TZ
T1C0.025
T2C0.030
T3C0.032
%
G90
G05
T1
X80400Y-51412
X85900Y-53000
X88400Y-53000
T2
X87290Y-58185
X87290Y-59185
X87290Y-60185
X87290Y-61185
X87290Y-62185
X87290Y-63185
X87290Y-64185
X87290Y-65185
T3
X89200Y-55000
X89200Y-57000
X89200Y-60000
X89200Y-62000
X89200Y-65000
X89200Y-67000
X94200Y-55000
X94200Y-57000
X94200Y-60000
X94200Y-62000
X94200Y-65000
X94200Y-67000
T0
M30
