G04 #@! TF.FileFunction,Legend,Top*
%FSLAX46Y46*%
G04 Gerber Fmt 4.6, Leading zero omitted, Abs format (unit mm)*
G04 Created by KiCad (PCBNEW 4.0.2-4+6225~38~ubuntu14.04.1-stable) date Tue 08 Mar 2016 14:25:17 CET*
%MOMM*%
G01*
G04 APERTURE LIST*
%ADD10C,0.150000*%
%ADD11C,0.200000*%
%ADD12C,0.254000*%
G04 APERTURE END LIST*
D10*
D11*
X190055500Y-125285500D02*
X190055500Y-137985500D01*
X193103500Y-125285500D02*
X190055500Y-125285500D01*
X193103500Y-137985500D02*
X193103500Y-125285500D01*
X190055500Y-137985500D02*
X193103500Y-137985500D01*
X235140500Y-180022500D02*
X209740500Y-180022500D01*
X235140500Y-183070500D02*
X235140500Y-180022500D01*
X209740500Y-183070500D02*
X235140500Y-183070500D01*
X209740500Y-180022500D02*
X209740500Y-183070500D01*
X227520500Y-173672500D02*
X202120500Y-173672500D01*
X227520500Y-176720500D02*
X227520500Y-173672500D01*
X202120500Y-176720500D02*
X227520500Y-176720500D01*
X202120500Y-173672500D02*
X202120500Y-176720500D01*
X235140500Y-126682500D02*
X209740500Y-126682500D01*
X235140500Y-129730500D02*
X235140500Y-126682500D01*
X209740500Y-129730500D02*
X235140500Y-129730500D01*
X209740500Y-126682500D02*
X209740500Y-129730500D01*
X227520500Y-133032500D02*
X202120500Y-133032500D01*
X227520500Y-136080500D02*
X227520500Y-133032500D01*
X202120500Y-136080500D02*
X227520500Y-136080500D01*
X202120500Y-133032500D02*
X202120500Y-136080500D01*
D12*
X220181714Y-128666119D02*
X219697905Y-128666119D01*
X219697905Y-127650119D01*
X221100952Y-128569357D02*
X221052571Y-128617738D01*
X220907428Y-128666119D01*
X220810666Y-128666119D01*
X220665524Y-128617738D01*
X220568762Y-128520976D01*
X220520381Y-128424214D01*
X220472000Y-128230690D01*
X220472000Y-128085548D01*
X220520381Y-127892024D01*
X220568762Y-127795262D01*
X220665524Y-127698500D01*
X220810666Y-127650119D01*
X220907428Y-127650119D01*
X221052571Y-127698500D01*
X221100952Y-127746881D01*
X221536381Y-128666119D02*
X221536381Y-127650119D01*
X221778286Y-127650119D01*
X221923428Y-127698500D01*
X222020190Y-127795262D01*
X222068571Y-127892024D01*
X222116952Y-128085548D01*
X222116952Y-128230690D01*
X222068571Y-128424214D01*
X222020190Y-128520976D01*
X221923428Y-128617738D01*
X221778286Y-128666119D01*
X221536381Y-128666119D01*
X222310476Y-128762881D02*
X223084571Y-128762881D01*
X223907047Y-128569357D02*
X223858666Y-128617738D01*
X223713523Y-128666119D01*
X223616761Y-128666119D01*
X223471619Y-128617738D01*
X223374857Y-128520976D01*
X223326476Y-128424214D01*
X223278095Y-128230690D01*
X223278095Y-128085548D01*
X223326476Y-127892024D01*
X223374857Y-127795262D01*
X223471619Y-127698500D01*
X223616761Y-127650119D01*
X223713523Y-127650119D01*
X223858666Y-127698500D01*
X223907047Y-127746881D01*
X224536000Y-127650119D02*
X224729523Y-127650119D01*
X224826285Y-127698500D01*
X224923047Y-127795262D01*
X224971428Y-127988786D01*
X224971428Y-128327452D01*
X224923047Y-128520976D01*
X224826285Y-128617738D01*
X224729523Y-128666119D01*
X224536000Y-128666119D01*
X224439238Y-128617738D01*
X224342476Y-128520976D01*
X224294095Y-128327452D01*
X224294095Y-127988786D01*
X224342476Y-127795262D01*
X224439238Y-127698500D01*
X224536000Y-127650119D01*
X225406857Y-128666119D02*
X225406857Y-127650119D01*
X225987428Y-128666119D01*
X225987428Y-127650119D01*
X191071500Y-133147405D02*
X191023119Y-133244167D01*
X191023119Y-133389310D01*
X191071500Y-133534452D01*
X191168262Y-133631214D01*
X191265024Y-133679595D01*
X191458548Y-133727976D01*
X191603690Y-133727976D01*
X191797214Y-133679595D01*
X191893976Y-133631214D01*
X191990738Y-133534452D01*
X192039119Y-133389310D01*
X192039119Y-133292548D01*
X191990738Y-133147405D01*
X191942357Y-133099024D01*
X191603690Y-133099024D01*
X191603690Y-133292548D01*
X192039119Y-132663595D02*
X191023119Y-132663595D01*
X191023119Y-132276548D01*
X191071500Y-132179786D01*
X191119881Y-132131405D01*
X191216643Y-132083024D01*
X191361786Y-132083024D01*
X191458548Y-132131405D01*
X191506929Y-132179786D01*
X191555310Y-132276548D01*
X191555310Y-132663595D01*
X192039119Y-131647595D02*
X191023119Y-131647595D01*
X191023119Y-130970261D02*
X191023119Y-130776738D01*
X191071500Y-130679976D01*
X191168262Y-130583214D01*
X191361786Y-130534833D01*
X191700452Y-130534833D01*
X191893976Y-130583214D01*
X191990738Y-130679976D01*
X192039119Y-130776738D01*
X192039119Y-130970261D01*
X191990738Y-131067023D01*
X191893976Y-131163785D01*
X191700452Y-131212166D01*
X191361786Y-131212166D01*
X191168262Y-131163785D01*
X191071500Y-131067023D01*
X191023119Y-130970261D01*
X191652071Y-130099404D02*
X191652071Y-129325309D01*
X191361786Y-128406071D02*
X192039119Y-128406071D01*
X190974738Y-128647975D02*
X191700452Y-128889880D01*
X191700452Y-128260928D01*
X220928595Y-181038500D02*
X220831833Y-180990119D01*
X220686690Y-180990119D01*
X220541548Y-181038500D01*
X220444786Y-181135262D01*
X220396405Y-181232024D01*
X220348024Y-181425548D01*
X220348024Y-181570690D01*
X220396405Y-181764214D01*
X220444786Y-181860976D01*
X220541548Y-181957738D01*
X220686690Y-182006119D01*
X220783452Y-182006119D01*
X220928595Y-181957738D01*
X220976976Y-181909357D01*
X220976976Y-181570690D01*
X220783452Y-181570690D01*
X221412405Y-182006119D02*
X221412405Y-180990119D01*
X221799452Y-180990119D01*
X221896214Y-181038500D01*
X221944595Y-181086881D01*
X221992976Y-181183643D01*
X221992976Y-181328786D01*
X221944595Y-181425548D01*
X221896214Y-181473929D01*
X221799452Y-181522310D01*
X221412405Y-181522310D01*
X222428405Y-182006119D02*
X222428405Y-180990119D01*
X223105739Y-180990119D02*
X223299262Y-180990119D01*
X223396024Y-181038500D01*
X223492786Y-181135262D01*
X223541167Y-181328786D01*
X223541167Y-181667452D01*
X223492786Y-181860976D01*
X223396024Y-181957738D01*
X223299262Y-182006119D01*
X223105739Y-182006119D01*
X223008977Y-181957738D01*
X222912215Y-181860976D01*
X222863834Y-181667452D01*
X222863834Y-181328786D01*
X222912215Y-181135262D01*
X223008977Y-181038500D01*
X223105739Y-180990119D01*
X223976596Y-181619071D02*
X224750691Y-181619071D01*
X225137739Y-180990119D02*
X225766691Y-180990119D01*
X225428025Y-181377167D01*
X225573167Y-181377167D01*
X225669929Y-181425548D01*
X225718310Y-181473929D01*
X225766691Y-181570690D01*
X225766691Y-181812595D01*
X225718310Y-181909357D01*
X225669929Y-181957738D01*
X225573167Y-182006119D01*
X225282882Y-182006119D01*
X225186120Y-181957738D01*
X225137739Y-181909357D01*
X213308595Y-174688500D02*
X213211833Y-174640119D01*
X213066690Y-174640119D01*
X212921548Y-174688500D01*
X212824786Y-174785262D01*
X212776405Y-174882024D01*
X212728024Y-175075548D01*
X212728024Y-175220690D01*
X212776405Y-175414214D01*
X212824786Y-175510976D01*
X212921548Y-175607738D01*
X213066690Y-175656119D01*
X213163452Y-175656119D01*
X213308595Y-175607738D01*
X213356976Y-175559357D01*
X213356976Y-175220690D01*
X213163452Y-175220690D01*
X213792405Y-175656119D02*
X213792405Y-174640119D01*
X214179452Y-174640119D01*
X214276214Y-174688500D01*
X214324595Y-174736881D01*
X214372976Y-174833643D01*
X214372976Y-174978786D01*
X214324595Y-175075548D01*
X214276214Y-175123929D01*
X214179452Y-175172310D01*
X213792405Y-175172310D01*
X214808405Y-175656119D02*
X214808405Y-174640119D01*
X215485739Y-174640119D02*
X215679262Y-174640119D01*
X215776024Y-174688500D01*
X215872786Y-174785262D01*
X215921167Y-174978786D01*
X215921167Y-175317452D01*
X215872786Y-175510976D01*
X215776024Y-175607738D01*
X215679262Y-175656119D01*
X215485739Y-175656119D01*
X215388977Y-175607738D01*
X215292215Y-175510976D01*
X215243834Y-175317452D01*
X215243834Y-174978786D01*
X215292215Y-174785262D01*
X215388977Y-174688500D01*
X215485739Y-174640119D01*
X216356596Y-175269071D02*
X217130691Y-175269071D01*
X217566120Y-174736881D02*
X217614501Y-174688500D01*
X217711263Y-174640119D01*
X217953167Y-174640119D01*
X218049929Y-174688500D01*
X218098310Y-174736881D01*
X218146691Y-174833643D01*
X218146691Y-174930405D01*
X218098310Y-175075548D01*
X217517739Y-175656119D01*
X218146691Y-175656119D01*
X213308595Y-134048500D02*
X213211833Y-134000119D01*
X213066690Y-134000119D01*
X212921548Y-134048500D01*
X212824786Y-134145262D01*
X212776405Y-134242024D01*
X212728024Y-134435548D01*
X212728024Y-134580690D01*
X212776405Y-134774214D01*
X212824786Y-134870976D01*
X212921548Y-134967738D01*
X213066690Y-135016119D01*
X213163452Y-135016119D01*
X213308595Y-134967738D01*
X213356976Y-134919357D01*
X213356976Y-134580690D01*
X213163452Y-134580690D01*
X213792405Y-135016119D02*
X213792405Y-134000119D01*
X214179452Y-134000119D01*
X214276214Y-134048500D01*
X214324595Y-134096881D01*
X214372976Y-134193643D01*
X214372976Y-134338786D01*
X214324595Y-134435548D01*
X214276214Y-134483929D01*
X214179452Y-134532310D01*
X213792405Y-134532310D01*
X214808405Y-135016119D02*
X214808405Y-134000119D01*
X215485739Y-134000119D02*
X215679262Y-134000119D01*
X215776024Y-134048500D01*
X215872786Y-134145262D01*
X215921167Y-134338786D01*
X215921167Y-134677452D01*
X215872786Y-134870976D01*
X215776024Y-134967738D01*
X215679262Y-135016119D01*
X215485739Y-135016119D01*
X215388977Y-134967738D01*
X215292215Y-134870976D01*
X215243834Y-134677452D01*
X215243834Y-134338786D01*
X215292215Y-134145262D01*
X215388977Y-134048500D01*
X215485739Y-134000119D01*
X216356596Y-134629071D02*
X217130691Y-134629071D01*
X218146691Y-135016119D02*
X217566120Y-135016119D01*
X217856406Y-135016119D02*
X217856406Y-134000119D01*
X217759644Y-134145262D01*
X217662882Y-134242024D01*
X217566120Y-134290405D01*
D10*
X237497050Y-142240000D02*
G75*
G03X237497050Y-142240000I-4579050J0D01*
G01*
X226918000Y-136240000D02*
X238918000Y-136240000D01*
X238918000Y-136240000D02*
X238918000Y-148240000D01*
X238918000Y-148240000D02*
X226918000Y-148240000D01*
X226918000Y-148240000D02*
X226918000Y-136240000D01*
X237497050Y-154940000D02*
G75*
G03X237497050Y-154940000I-4579050J0D01*
G01*
X226918000Y-148940000D02*
X238918000Y-148940000D01*
X238918000Y-148940000D02*
X238918000Y-160940000D01*
X238918000Y-160940000D02*
X226918000Y-160940000D01*
X226918000Y-160940000D02*
X226918000Y-148940000D01*
X237497050Y-167640000D02*
G75*
G03X237497050Y-167640000I-4579050J0D01*
G01*
X226918000Y-161640000D02*
X238918000Y-161640000D01*
X238918000Y-161640000D02*
X238918000Y-173640000D01*
X238918000Y-173640000D02*
X226918000Y-173640000D01*
X226918000Y-173640000D02*
X226918000Y-161640000D01*
X202136381Y-155765905D02*
X202945905Y-155765905D01*
X203041143Y-155718286D01*
X203088762Y-155670667D01*
X203136381Y-155575429D01*
X203136381Y-155384952D01*
X203088762Y-155289714D01*
X203041143Y-155242095D01*
X202945905Y-155194476D01*
X202136381Y-155194476D01*
X203136381Y-154194476D02*
X203136381Y-154765905D01*
X203136381Y-154480191D02*
X202136381Y-154480191D01*
X202279238Y-154575429D01*
X202374476Y-154670667D01*
X202422095Y-154765905D01*
X231584667Y-141882762D02*
X231727524Y-141930381D01*
X231965620Y-141930381D01*
X232060858Y-141882762D01*
X232108477Y-141835143D01*
X232156096Y-141739905D01*
X232156096Y-141644667D01*
X232108477Y-141549429D01*
X232060858Y-141501810D01*
X231965620Y-141454190D01*
X231775143Y-141406571D01*
X231679905Y-141358952D01*
X231632286Y-141311333D01*
X231584667Y-141216095D01*
X231584667Y-141120857D01*
X231632286Y-141025619D01*
X231679905Y-140978000D01*
X231775143Y-140930381D01*
X232013239Y-140930381D01*
X232156096Y-140978000D01*
X232489429Y-140930381D02*
X232727524Y-141930381D01*
X232918001Y-141216095D01*
X233108477Y-141930381D01*
X233346572Y-140930381D01*
X234251334Y-141930381D02*
X233679905Y-141930381D01*
X233965619Y-141930381D02*
X233965619Y-140930381D01*
X233870381Y-141073238D01*
X233775143Y-141168476D01*
X233679905Y-141216095D01*
X231584667Y-154582762D02*
X231727524Y-154630381D01*
X231965620Y-154630381D01*
X232060858Y-154582762D01*
X232108477Y-154535143D01*
X232156096Y-154439905D01*
X232156096Y-154344667D01*
X232108477Y-154249429D01*
X232060858Y-154201810D01*
X231965620Y-154154190D01*
X231775143Y-154106571D01*
X231679905Y-154058952D01*
X231632286Y-154011333D01*
X231584667Y-153916095D01*
X231584667Y-153820857D01*
X231632286Y-153725619D01*
X231679905Y-153678000D01*
X231775143Y-153630381D01*
X232013239Y-153630381D01*
X232156096Y-153678000D01*
X232489429Y-153630381D02*
X232727524Y-154630381D01*
X232918001Y-153916095D01*
X233108477Y-154630381D01*
X233346572Y-153630381D01*
X233679905Y-153725619D02*
X233727524Y-153678000D01*
X233822762Y-153630381D01*
X234060858Y-153630381D01*
X234156096Y-153678000D01*
X234203715Y-153725619D01*
X234251334Y-153820857D01*
X234251334Y-153916095D01*
X234203715Y-154058952D01*
X233632286Y-154630381D01*
X234251334Y-154630381D01*
X231584667Y-167282762D02*
X231727524Y-167330381D01*
X231965620Y-167330381D01*
X232060858Y-167282762D01*
X232108477Y-167235143D01*
X232156096Y-167139905D01*
X232156096Y-167044667D01*
X232108477Y-166949429D01*
X232060858Y-166901810D01*
X231965620Y-166854190D01*
X231775143Y-166806571D01*
X231679905Y-166758952D01*
X231632286Y-166711333D01*
X231584667Y-166616095D01*
X231584667Y-166520857D01*
X231632286Y-166425619D01*
X231679905Y-166378000D01*
X231775143Y-166330381D01*
X232013239Y-166330381D01*
X232156096Y-166378000D01*
X232489429Y-166330381D02*
X232727524Y-167330381D01*
X232918001Y-166616095D01*
X233108477Y-167330381D01*
X233346572Y-166330381D01*
X233632286Y-166330381D02*
X234251334Y-166330381D01*
X233918000Y-166711333D01*
X234060858Y-166711333D01*
X234156096Y-166758952D01*
X234203715Y-166806571D01*
X234251334Y-166901810D01*
X234251334Y-167139905D01*
X234203715Y-167235143D01*
X234156096Y-167282762D01*
X234060858Y-167330381D01*
X233775143Y-167330381D01*
X233679905Y-167282762D01*
X233632286Y-167235143D01*
M02*
