<?xml version="1.0" encoding="UTF-8" standalone="no"?>
<!-- Created with Inkscape (http://www.inkscape.org/) -->

<svg
   xmlns:dc="http://purl.org/dc/elements/1.1/"
   xmlns:cc="http://creativecommons.org/ns#"
   xmlns:rdf="http://www.w3.org/1999/02/22-rdf-syntax-ns#"
   xmlns:svg="http://www.w3.org/2000/svg"
   xmlns="http://www.w3.org/2000/svg"
   xmlns:sodipodi="http://sodipodi.sourceforge.net/DTD/sodipodi-0.dtd"
   xmlns:inkscape="http://www.inkscape.org/namespaces/inkscape"
   width="199.22908"
   height="52.835739"
   id="svg3011"
   version="1.1"
   inkscape:version="0.48.4 r9939"
   sodipodi:docname="fp_logo.svg">
  <defs
     id="defs3013">
    <inkscape:perspective
       sodipodi:type="inkscape:persp3d"
       inkscape:vp_x="0 : 8.5449638 : 1"
       inkscape:vp_y="0 : 1000 : 0"
       inkscape:vp_z="129.68062 : 8.5449638 : 1"
       inkscape:persp3d-origin="64.840309 : 5.6966426 : 1"
       id="perspective3789" />
  </defs>
  <sodipodi:namedview
     id="base"
     pagecolor="#ffffff"
     bordercolor="#666666"
     borderopacity="1.0"
     inkscape:pageopacity="0.0"
     inkscape:pageshadow="2"
     inkscape:zoom="1.979899"
     inkscape:cx="33.067805"
     inkscape:cy="54.540217"
     inkscape:document-units="px"
     inkscape:current-layer="layer1"
     showgrid="false"
     fit-margin-top="0"
     fit-margin-left="0"
     fit-margin-right="0"
     fit-margin-bottom="0"
     inkscape:window-width="1855"
     inkscape:window-height="1056"
     inkscape:window-x="65"
     inkscape:window-y="24"
     inkscape:window-maximized="1"
     height="372.05px" />
  <metadata
     id="metadata3016">
    <rdf:RDF>
      <cc:Work
         rdf:about="">
        <dc:format>image/svg+xml</dc:format>
        <dc:type
           rdf:resource="http://purl.org/dc/dcmitype/StillImage" />
        <dc:title />
      </cc:Work>
    </rdf:RDF>
  </metadata>
  <g
     inkscape:label="Layer 1"
     inkscape:groupmode="layer"
     id="layer1"
     transform="translate(32.014054,-496.29447)">
    <g
       id="g3810"
       transform="matrix(0.20091799,0,0,0.20091799,-21.928614,400.59166)">
      <path
         style="fill:#fcfcfc;fill-opacity:1"
         inkscape:connector-curvature="0"
         id="path3049"
         d="m 69.5141,477.71693 c -18.1401,36.2051 -34.623,72.4678 -49.4511,108.6728 h 22.9668 c 3.333,0 6.4033,-2.1543 7.6133,-5.3271 1.7968,-4.7051 3.624,-9.4111 5.476,-14.1162 h 33.96 c 1.1767,4.7236 2.3828,9.4463 3.6157,14.1699 0.8213,3.1445 3.6323,5.2734 6.937,5.2734 h 23.627 c -10.5386,-36.205 -19.4229,-72.4677 -26.6509,-108.6728 H 69.5141 z m -4.5449,66.9971 c 4.3457,-10.5498 8.8306,-21.1021 13.459,-31.6519 2.0606,10.5498 4.2647,21.1021 6.6079,31.6519 H 64.9692 z" />
      <path
         style="fill:#fcfcfc;fill-opacity:1"
         inkscape:connector-curvature="0"
         id="path3051"
         d="m 138.1079,586.38973 h 27.7852 c 2.1582,-36 5.9521,-72.0546 11.3837,-108.0546 h -27.7846 c -5.4322,36 -9.2261,72.0546 -11.3843,108.0546" />
      <path
         style="fill:#fcfcfc;fill-opacity:1"
         inkscape:connector-curvature="0"
         id="path3053"
         d="m 280.644,515.37803 c 0.0323,-0.2568 0.0625,-0.5151 0.0933,-0.7719 1.3149,-10.962 -0.9273,-19.2984 -6.1021,-25.316 -5.9389,-7.0991 -16.2988,-10.955 -30.8129,-10.955 h -50.168 c -1.2183,8.0737 -2.356,16.1518 -3.4082,24.2299 h 7.7182 c -3.644,27.941 -6.3032,55.8999 -7.976,83.8247 h 27.6308 c 0.669,-11.16009 1.4951,-22.3252 2.479,-33.4921 h 9.8789 c 4.5303,9.8447 9.1841,19.6884 13.958,29.5273 1.1915,2.4463 3.6705,3.9648 6.4561,3.9648 h 26.811 c -6.6259,-13.0615 -13.0366,-26.1328 -19.2319,-39.205 11.9609,-5.7119 20.7671,-15.7486 22.6738,-31.8067 m -28.1045,1.3897 c -1.0172,8.6474 -7.1342,14.0512 -16.5551,14.0512 h -13.7383 c 1.0063,-9.4189 2.1201,-18.8369 3.3491,-28.2539 h 13.584 c 9.269,0 14.5068,4.6309 13.397,13.8941 -0.0127,0.103 -0.0249,0.206 -0.0367,0.3086" />
      <path
         style="fill:#fcfcfc;fill-opacity:1"
         inkscape:connector-curvature="0"
         id="path3055"
         d="m 345.7139,478.33513 h -46.3081 c -1.1959,7.9199 -2.3721,16.3056 -3.4078,24.2299 h 7.7178 c -3.6748,28.0948 -6.2949,55.7447 -7.977,83.8247 h 27.6308 c 0.626,-10.43939 1.3892,-20.8837 2.291,-31.33 h 10.6514 c 23.6909,-0.3096 43.3779,-12.6621 46.4043,-38.6006 0.0254,-0.2061 0.0488,-0.4121 0.0732,-0.6182 2.9307,-24.2412 -11.5717,-37.5058 -37.0756,-37.5058 m 9.0898,39.2045 c -1.063,9.1104 -7.519,14.8228 -17.2437,14.8228 h -9.7251 c 1.063,-10.0874 2.1929,-19.7114 3.5118,-29.7974 h 9.5703 c 10.0376,0 15.1206,4.6309 13.9409,14.5118 -0.0171,0.1543 -0.0371,0.309 -0.0542,0.4628" />
      <path
         style="fill:#fcfcfc;fill-opacity:1"
         inkscape:connector-curvature="0"
         id="path3057"
         d="m 453.1811,519.39273 h -30.7177 c 1.5898,-13.69 3.4179,-27.378 5.4834,-41.0581 h -27.7852 c -5.4316,36 -9.2266,72.0561 -11.3848,108.0551 h 27.7852 c 0.832,-13.8857 1.9082,-27.7802 3.2275,-41.6757 h 30.7188 c -1.3184,13.8955 -2.3955,27.79 -3.2275,41.6757 h 27.9394 c 2.1592,-35.999 5.9531,-72.0551 11.3839,-108.0551 h -27.9385 c -2.0655,13.6801 -3.8907,27.3681 -5.4845,41.0581" />
      <path
         style="fill:#fcfcfc;fill-opacity:1"
         inkscape:connector-curvature="0"
         id="path3059"
         d="m 668.1997,532.67003 c -10.4395,-18.7529 -20.4355,-37.5049 -29.9883,-56.2422 -13.0098,2.1011 -12.4336,2.0083 -25.4443,4.1094 -5.2569,35.2676 -8.9405,70.5869 -11.0537,105.8525 h 27.3222 c 1.1319,-18.874 2.7119,-37.7636 4.7442,-56.6528 9.8183,17.8003 20.0381,35.6011 30.6592,53.3892 1.207,2.0234 3.3964,3.2636 5.7529,3.2636 h 20.8974 c 2.1582,-36 5.9522,-72.0546 11.3838,-108.0546 h -27.3213 c -2.7314,18.102 -5.0488,36.2187 -6.9521,54.3349" />
      <path
         style="fill:#fcfcfc;fill-opacity:1"
         inkscape:connector-curvature="0"
         id="path3061"
         d="m -16.8657,522.48063 c 0.7256,-6.3819 1.5019,-12.7627 2.3296,-19.1441 H 36.06 c 1.0821,-8.3359 2.25,-16.6699 3.5079,-25.0019 h -86.0987 c -1.2573,8.332 -2.4272,16.666 -3.5083,25.0019 h 7.7183 c -3.5923,27.6841 -6.2183,55.3853 -7.876,83.0542 h 27.7847 c 0.7983,-13.3203 1.8203,-26.6484 3.0674,-39.9775 h 29.9458 c 4.226,-10e-4 7.9599,-3.4219 8.3798,-7.6426 0.544,-5.4297 1.1211,-10.8599 1.7403,-16.29 h -37.5869 z" />
      <path
         style="fill:#fcfcfc;fill-opacity:1"
         inkscape:connector-curvature="0"
         id="path3063"
         d="m 743.5972,562.00603 c 0.497,-6.1749 1.0419,-12.3506 1.6347,-18.5274 h 30.4336 c 4.2149,0 7.9697,-3.4209 8.3994,-7.6426 0.5264,-5.1211 1.0821,-10.2422 1.6729,-15.3642 h -38.0762 c 0.6826,-5.918 1.4092,-11.836 2.1817,-17.753 h 46.9257 c 1.0586,-8.1298 2.2012,-16.2578 3.4278,-24.3837 h -82.1211 c -1.2256,8.125 -2.3692,16.2539 -3.4278,24.3837 h 7.7178 c -3.6338,27.8892 -6.2861,55.7969 -7.957,83.6709 h 75.0215 c 0.4873,-8.125 1.0556,-16.2539 1.7099,-24.3837 h -47.5429 z" />
      <path
         style="fill:#fcfcfc;fill-opacity:1"
         inkscape:connector-curvature="0"
         id="path3065"
         d="m 578.31,493.15783 3.8516,-3.6289 c -7.5107,-8.3872 -18.459,-13.2012 -32.0068,-13.2012 -28.9756,-9e-4 -53.836,22.6792 -57.2764,54.9541 -0.083,0.772 -0.1631,1.5435 -0.2441,2.316 -3.3633,32.4267 16.4297,54.7998 45.5586,54.7988 29.0615,0.001 50.2793,-19.6787 53.6386,-51.9541 0.0801,-0.7715 0.1602,-1.544 0.2432,-2.3155 1.8486,-17.2753 -5.1553,-31.2705 -13.7647,-40.9692 m -14.6865,41.4331 c -0.0605,0.5654 -0.1191,1.1319 -0.1797,1.6983 -1.9336,18.6836 -10.3818,26.9511 -23.3642,26.9511 -12.7862,0 -20.9356,-11.4228 -18.9942,-30.1054 0.0586,-0.5664 0.1172,-1.1324 0.1778,-1.6983 2,-18.685 12.3701,-29.9541 25.167,-29.9541 6.2802,0 11.2431,2.7432 14.4463,7.7271 l -3.876,3.6533 c 3.2324,5.1938 7.6279,12.3315 6.623,21.728" />
    </g>
    <text
       xml:space="preserve"
       style="font-size:40px;font-style:normal;font-variant:normal;font-weight:300;font-stretch:normal;line-height:125%;letter-spacing:0px;word-spacing:0px;fill:#000000;fill-opacity:1;stroke:none;font-family:Fira Sans OT;-inkscape-font-specification:Fira Sans OT Light"
       x="76.428574"
       y="51.375641"
       id="text2994"
       sodipodi:linespacing="125%"
       transform="translate(-13.831308,500.57139)"><tspan
         sodipodi:role="line"
         id="tspan2996"
         x="76.428574"
         y="51.375641" /></text>
    <g
       style="font-size:24.44352913px;font-style:normal;font-weight:normal;line-height:125%;letter-spacing:0px;word-spacing:0px;fill:#fcfcfc;fill-opacity:1;stroke:none;font-family:Sans"
       id="text2995">
      <path
         d="m 53.197806,545.65923 c -1.874008,0 -3.210253,-0.52961 -4.008739,-1.58883 -0.79849,-1.05922 -1.197734,-2.70508 -1.197732,-4.93759 -2e-6,-2.2325 0.399242,-3.87837 1.197732,-4.9376 0.798486,-1.0592 2.134731,-1.58881 4.008739,-1.58883 1.873996,2e-5 3.210241,0.52963 4.008739,1.58883 0.798477,1.05923 1.197721,2.7051 1.197733,4.9376 -1.2e-5,2.23251 -0.399256,3.87837 -1.197733,4.93759 -0.798498,1.05922 -2.134743,1.58883 -4.008739,1.58883 m 0,-0.87997 c 0.87996,0 1.596969,-0.13036 2.151031,-0.3911 0.554044,-0.27702 0.977731,-0.65997 1.271063,-1.14884 0.309608,-0.50516 0.521452,-1.09996 0.635532,-1.78438 0.114059,-0.70071 0.171094,-1.47475 0.171105,-2.32213 -1.1e-5,-0.84737 -0.05705,-1.61327 -0.171105,-2.2977 -0.11408,-0.7007 -0.325924,-1.29549 -0.635532,-1.78437 -0.293332,-0.50516 -0.717019,-0.88811 -1.271063,-1.14885 -0.554062,-0.27701 -1.271071,-0.41553 -2.151031,-0.41554 -0.879972,10e-6 -1.596982,0.13853 -2.15103,0.41554 -0.554057,0.26074 -0.985893,0.64369 -1.295507,1.14885 -0.293325,0.48888 -0.497021,1.08367 -0.611089,1.78437 -0.114072,0.68443 -0.171107,1.45033 -0.171104,2.2977 -3e-6,0.84738 0.05703,1.62142 0.171104,2.32213 0.114068,0.68442 0.317764,1.27922 0.611089,1.78438 0.309614,0.48887 0.74145,0.87182 1.295507,1.14884 0.554048,0.26074 1.271058,0.3911 2.15103,0.3911"
         style="font-variant:normal;font-weight:bold;font-stretch:normal;fill:#fcfcfc;fill-opacity:1;font-family:EnzoComp-Light;-inkscape-font-specification:EnzoComp-Light Bold"
         id="path2998"
         inkscape:connector-curvature="0" />
      <path
         d="m 62.443572,543.85041 c 0.586641,0.32591 1.181433,0.5622 1.784377,0.70886 0.602935,0.14666 1.205875,0.21999 1.808821,0.21999 0.537751,0 1.042917,-0.0652 1.515499,-0.19555 0.488862,-0.14666 0.91255,-0.42368 1.271064,-0.83108 0.374791,-0.40739 0.668113,-0.97774 0.879967,-1.71104 0.211833,-0.7496 0.317755,-1.71919 0.317766,-2.90878 -1.1e-5,-0.87996 -0.05705,-1.6703 -0.171105,-2.37103 -0.11408,-0.7007 -0.309628,-1.28735 -0.586645,-1.75993 -0.277036,-0.48886 -0.643688,-0.86366 -1.099959,-1.1244 -0.456287,-0.26072 -1.026635,-0.39109 -1.711047,-0.3911 -0.537764,10e-6 -1.00219,0.0733 -1.393281,0.21999 -0.391101,0.13038 -0.741458,0.32593 -1.051072,0.58665 -0.309622,0.24444 -0.586648,0.55406 -0.83108,0.92885 -0.244438,0.37481 -0.488873,0.7985 -0.733305,1.27106 l 0,7.35751 m -0.977742,5.2798 0,-12.97951 c -10e-7,-0.53775 -0.03259,-1.08366 -0.09777,-1.63772 -0.06518,-0.55404 -0.162958,-1.0755 -0.293322,-1.56439 l 0.855523,-0.14666 c 0.244433,0.65184 0.391094,1.40959 0.439984,2.27325 0.211841,-0.37479 0.43998,-0.70885 0.684419,-1.00218 0.260727,-0.30961 0.554049,-0.57034 0.879967,-0.7822 0.342205,-0.22812 0.725153,-0.39923 1.148846,-0.51331 0.439977,-0.11406 0.945143,-0.17109 1.515498,-0.17111 0.782186,2e-5 1.450308,0.14668 2.00437,0.43999 0.570339,0.29333 1.026618,0.72517 1.368838,1.2955 0.358494,0.55407 0.619225,1.23849 0.782192,2.05326 0.162946,0.7985 0.244424,1.71105 0.244436,2.73768 -1.2e-5,1.36884 -0.146673,2.48509 -0.439984,3.34876 -0.277037,0.84738 -0.651837,1.50735 -1.124402,1.97993 -0.456289,0.47257 -0.985898,0.79034 -1.58883,0.95329 -0.586652,0.16296 -1.189592,0.24444 -1.808821,0.24444 -0.684424,0 -1.311807,-0.0733 -1.882151,-0.21999 -0.554058,-0.13037 -1.124406,-0.33406 -1.711047,-0.61109 l 0,4.30206 -0.977742,0"
         style="font-variant:normal;font-weight:bold;font-stretch:normal;fill:#fcfcfc;fill-opacity:1;font-family:EnzoComp-Light;-inkscape-font-specification:EnzoComp-Light Bold"
         id="path3000"
         inkscape:connector-curvature="0" />
      <path
         d="m 82.82031,544.68149 c -0.586655,0.3585 -1.214038,0.61109 -1.882152,0.75775 -0.668131,0.14666 -1.393288,0.21999 -2.175474,0.21999 -0.717016,0 -1.393286,-0.0896 -2.028813,-0.26888 -0.61924,-0.17925 -1.165145,-0.50517 -1.637717,-0.97774 -0.472577,-0.48887 -0.847377,-1.15699 -1.124402,-2.00437 -0.260732,-0.84737 -0.391098,-1.93104 -0.391096,-3.25099 -2e-6,-1.43401 0.146659,-2.57471 0.439983,-3.42209 0.309616,-0.86367 0.700712,-1.52364 1.17329,-1.97993 0.488867,-0.47256 1.026624,-0.78218 1.613273,-0.92885 0.602935,-0.14665 1.189579,-0.21998 1.759934,-0.22 0.733298,2e-5 1.393273,0.11409 1.979925,0.34221 0.602932,0.21186 1.108098,0.57036 1.515499,1.07552 0.407382,0.50518 0.717,1.18145 0.928854,2.02881 0.228129,0.83109 0.342199,1.85772 0.34221,3.07989 l 0,0.0978 -8.750784,0.70886 c 0.03259,1.01034 0.162955,1.83327 0.391097,2.4688 0.228137,0.61924 0.529606,1.10811 0.90441,1.46661 0.374797,0.34221 0.806632,0.5785 1.295507,0.70886 0.505161,0.13037 1.042918,0.19555 1.613273,0.19555 0.684412,0 1.319943,-0.0733 1.906596,-0.21999 0.586635,-0.14666 1.173279,-0.38295 1.759934,-0.70886 l 0.366653,0.83108 m -0.488871,-6.25755 c -0.01631,-0.94514 -0.11408,-1.72733 -0.293322,-2.34658 -0.179262,-0.63552 -0.431845,-1.14068 -0.75775,-1.51549 -0.325922,-0.39109 -0.725166,-0.66812 -1.197733,-0.83108 -0.456286,-0.16295 -0.961452,-0.24443 -1.515498,-0.24444 -0.521468,10e-6 -1.026634,0.0652 -1.515499,0.19555 -0.472579,0.13038 -0.896267,0.39111 -1.271064,0.78219 -0.374804,0.37481 -0.676274,0.91257 -0.90441,1.61327 -0.211847,0.70073 -0.317768,1.61329 -0.317766,2.73768 l 0,0.24444 7.773042,-0.63554"
         style="font-variant:normal;font-weight:bold;font-stretch:normal;fill:#fcfcfc;fill-opacity:1;font-family:EnzoComp-Light;-inkscape-font-specification:EnzoComp-Light Bold"
         id="path3002"
         inkscape:connector-curvature="0" />
      <path
         d="m 94.697572,545.36591 0,-6.77086 c -10e-6,-0.7496 -0.04075,-1.43401 -0.122218,-2.05326 -0.06519,-0.63552 -0.220002,-1.17328 -0.464427,-1.61327 -0.228149,-0.45627 -0.56221,-0.80663 -1.002185,-1.05107 -0.423696,-0.26072 -0.985896,-0.39109 -1.686603,-0.3911 -0.537764,10e-6 -1.010339,0.0733 -1.417725,0.21999 -0.391101,0.13038 -0.741458,0.32593 -1.051072,0.58665 -0.309622,0.24444 -0.594796,0.55406 -0.855523,0.92885 -0.244439,0.37481 -0.488874,0.7985 -0.733306,1.27106 l 0,8.87301 -0.977741,0 0,-9.21521 c -2e-6,-0.53775 -0.03259,-1.08366 -0.09777,-1.63772 -0.06518,-0.55404 -0.162959,-1.0755 -0.293323,-1.56439 l 0.855524,-0.14666 c 0.244433,0.65184 0.391094,1.40959 0.439983,2.27325 0.211841,-0.37479 0.448129,-0.70885 0.708863,-1.00218 0.260727,-0.30961 0.554049,-0.57034 0.879967,-0.7822 0.342204,-0.22812 0.733301,-0.39923 1.173289,-0.51331 0.439978,-0.11406 0.945143,-0.17109 1.515499,-0.17111 0.896255,2e-5 1.613264,0.17112 2.15103,0.51332 0.537748,0.34222 0.953288,0.79035 1.24662,1.34439 0.293312,0.53777 0.480712,1.14886 0.562202,1.83327 0.09776,0.66813 0.14665,1.33625 0.146661,2.00437 l 0,7.06418 -0.977741,0"
         style="font-variant:normal;font-weight:bold;font-stretch:normal;fill:#fcfcfc;fill-opacity:1;font-family:EnzoComp-Light;-inkscape-font-specification:EnzoComp-Light Bold"
         id="path3004"
         inkscape:connector-curvature="0" />
      <path
         d="m 103.63779,543.70375 c 0.53776,0.34221 1.14885,0.61109 1.83327,0.80663 0.68441,0.17926 1.39327,0.26888 2.12658,0.26888 0.40739,0 0.79849,-0.0407 1.17329,-0.12222 0.3748,-0.0978 0.70886,-0.25258 1.00219,-0.46442 0.29331,-0.21185 0.52145,-0.48887 0.68442,-0.83108 0.17924,-0.34221 0.26887,-0.77405 0.26888,-1.29551 -1e-5,-0.42368 -0.0896,-0.77404 -0.26888,-1.05107 -0.17926,-0.27702 -0.4237,-0.50516 -0.73331,-0.68442 -0.30962,-0.19554 -0.67628,-0.3585 -1.09996,-0.48887 -0.4074,-0.13036 -0.84738,-0.26073 -1.31995,-0.3911 -0.48887,-0.13036 -0.96145,-0.27702 -1.41772,-0.43998 -0.43999,-0.17925 -0.82294,-0.39924 -1.14885,-0.65998 -0.32591,-0.27702 -0.58665,-0.61108 -0.78219,-1.00218 -0.19555,-0.40739 -0.29333,-0.9044 -0.29332,-1.49106 -1e-5,-0.58663 0.10592,-1.08365 0.31776,-1.49105 0.21184,-0.42368 0.49702,-0.75774 0.85553,-1.00219 0.3585,-0.26072 0.76589,-0.44812 1.22217,-0.5622 0.47257,-0.13035 0.96144,-0.19553 1.46661,-0.19555 0.57035,2e-5 1.1407,0.0489 1.71105,0.14666 0.58664,0.0815 1.15699,0.26075 1.71105,0.53776 l -0.36666,0.83108 c -0.45628,-0.22813 -0.94515,-0.39108 -1.46661,-0.48887 -0.50517,-0.0978 -1.02663,-0.14665 -1.56438,-0.14666 -0.4237,10e-6 -0.81479,0.0408 -1.17329,0.12222 -0.34222,0.0652 -0.65183,0.19556 -0.92886,0.39109 -0.26073,0.17927 -0.46443,0.4237 -0.61108,0.73331 -0.14667,0.30963 -0.22,0.69258 -0.22,1.14885 0,0.4074 0.0652,0.74961 0.19555,1.02662 0.14666,0.27704 0.35036,0.51333 0.61109,0.70887 0.27702,0.19555 0.60294,0.36666 0.97774,0.51331 0.39109,0.14667 0.83108,0.28518 1.31995,0.41554 0.53775,0.14667 1.04292,0.30148 1.5155,0.46443 0.47257,0.16296 0.88811,0.3748 1.24662,0.63553 0.37479,0.26074 0.66811,0.58665 0.87997,0.97774 0.21183,0.37481 0.31775,0.85553 0.31776,1.44217 -1e-5,0.66813 -0.11408,1.23033 -0.34221,1.6866 -0.21185,0.45628 -0.50517,0.82294 -0.87996,1.09996 -0.35852,0.27703 -0.7822,0.48072 -1.27107,0.61109 -0.48887,0.13037 -1.00219,0.19555 -1.53994,0.19555 -0.83108,0 -1.62142,-0.0896 -2.37102,-0.26888 -0.7496,-0.16296 -1.43402,-0.45628 -2.05326,-0.87997 l 0.41554,-0.80663"
         style="font-variant:normal;font-weight:bold;font-stretch:normal;fill:#fcfcfc;fill-opacity:1;font-family:EnzoComp-Light;-inkscape-font-specification:EnzoComp-Light Bold"
         id="path3006"
         inkscape:connector-curvature="0" />
      <path
         d="m 119.22398,545.65923 c -1.87401,0 -3.21025,-0.52961 -4.00874,-1.58883 -0.79849,-1.05922 -1.19773,-2.70508 -1.19773,-4.93759 0,-2.2325 0.39924,-3.87837 1.19773,-4.9376 0.79849,-1.0592 2.13473,-1.58881 4.00874,-1.58883 1.874,2e-5 3.21024,0.52963 4.00874,1.58883 0.79848,1.05923 1.19772,2.7051 1.19773,4.9376 -10e-6,2.23251 -0.39925,3.87837 -1.19773,4.93759 -0.7985,1.05922 -2.13474,1.58883 -4.00874,1.58883 m 0,-0.87997 c 0.87996,0 1.59697,-0.13036 2.15103,-0.3911 0.55405,-0.27702 0.97773,-0.65997 1.27107,-1.14884 0.3096,-0.50516 0.52145,-1.09996 0.63553,-1.78438 0.11406,-0.70071 0.17109,-1.47475 0.1711,-2.32213 -1e-5,-0.84737 -0.057,-1.61327 -0.1711,-2.2977 -0.11408,-0.7007 -0.32593,-1.29549 -0.63553,-1.78437 -0.29334,-0.50516 -0.71702,-0.88811 -1.27107,-1.14885 -0.55406,-0.27701 -1.27107,-0.41553 -2.15103,-0.41554 -0.87997,10e-6 -1.59698,0.13853 -2.15103,0.41554 -0.55406,0.26074 -0.98589,0.64369 -1.2955,1.14885 -0.29333,0.48888 -0.49703,1.08367 -0.61109,1.78437 -0.11408,0.68443 -0.17111,1.45033 -0.17111,2.2977 0,0.84738 0.057,1.62142 0.17111,2.32213 0.11406,0.68442 0.31776,1.27922 0.61109,1.78438 0.30961,0.48887 0.74144,0.87182 1.2955,1.14884 0.55405,0.26074 1.27106,0.3911 2.15103,0.3911"
         style="font-variant:normal;font-weight:bold;font-stretch:normal;fill:#fcfcfc;fill-opacity:1;font-family:EnzoComp-Light;-inkscape-font-specification:EnzoComp-Light Bold"
         id="path3008"
         inkscape:connector-curvature="0" />
      <path
         d="m 136.12057,545.46368 c -0.24444,-0.65183 -0.3911,-1.40958 -0.43998,-2.27325 -0.4237,0.7496 -0.96145,1.35254 -1.61327,1.80882 -0.63554,0.43999 -1.52366,0.65998 -2.66435,0.65998 -0.89627,0 -1.61327,-0.17111 -2.15103,-0.51332 -0.53776,-0.3422 -0.9533,-0.78219 -1.24662,-1.31995 -0.29332,-0.55405 -0.48887,-1.16514 -0.58664,-1.83326 -0.0815,-0.68442 -0.12222,-1.36069 -0.12222,-2.02881 l 0,-6.91752 0.97774,-0.14666 0,6.77085 c 0,0.74961 0.0326,1.44218 0.0978,2.0777 0.0815,0.61924 0.23629,1.157 0.46443,1.61328 0.24443,0.43998 0.5785,0.79034 1.00219,1.05107 0.42368,0.24443 0.99403,0.36665 1.71104,0.36665 1.05922,0 1.88215,-0.26073 2.4688,-0.78219 0.58664,-0.52146 1.11625,-1.26291 1.58883,-2.22436 l 0,-8.72634 0.97774,-0.14666 0,9.21521 c -1e-5,0.53776 0.0326,1.08366 0.0978,1.63771 0.0652,0.55406 0.16295,1.07552 0.29333,1.56439 l -0.85553,0.14666"
         style="font-variant:normal;font-weight:bold;font-stretch:normal;fill:#fcfcfc;fill-opacity:1;font-family:EnzoComp-Light;-inkscape-font-specification:EnzoComp-Light Bold"
         id="path3010"
         inkscape:connector-curvature="0" />
      <path
         d="m 140.14344,545.36591 0,-9.21521 c 0,-0.53775 -0.0326,-1.08366 -0.0978,-1.63772 -0.0652,-0.55404 -0.16296,-1.0755 -0.29332,-1.56439 l 0.85552,-0.14666 c 0.13036,0.32593 0.22814,0.72517 0.29332,1.19773 0.0652,0.47259 0.11407,0.92072 0.14666,1.3444 0.3911,-0.78218 0.87997,-1.40142 1.46662,-1.85771 0.60293,-0.45627 1.40142,-0.74144 2.39546,-0.85552 l 0.12222,1.07551 c -0.52147,0.0326 -0.97775,0.12223 -1.36884,0.26888 -0.3748,0.14667 -0.71701,0.35037 -1.02663,0.61109 -0.29332,0.24445 -0.5622,0.54592 -0.80663,0.90441 -0.24444,0.35851 -0.48073,0.76591 -0.70887,1.22218 l 0,8.65301 -0.97774,0"
         style="font-variant:normal;font-weight:bold;font-stretch:normal;fill:#fcfcfc;fill-opacity:1;font-family:EnzoComp-Light;-inkscape-font-specification:EnzoComp-Light Bold"
         id="path3012"
         inkscape:connector-curvature="0" />
      <path
         d="m 155.12312,545.0237 c -0.48887,0.26073 -0.98589,0.43183 -1.49105,0.51331 -0.48888,0.0815 -0.97775,0.12222 -1.46661,0.12222 -1.87401,0 -3.21026,-0.52961 -4.00874,-1.58883 -0.79849,-1.05922 -1.19774,-2.70508 -1.19773,-4.93759 -1e-5,-2.2325 0.39924,-3.87837 1.19773,-4.9376 0.79848,-1.0592 2.13473,-1.58881 4.00874,-1.58883 0.48886,2e-5 0.97773,0.0408 1.46661,0.12222 0.50516,0.0815 1.00218,0.2526 1.49105,0.51332 l -0.36665,0.87996 c -0.42369,-0.22813 -0.84738,-0.38293 -1.27106,-0.46442 -0.4237,-0.0815 -0.86368,-0.12221 -1.31995,-0.12222 -0.87998,10e-6 -1.59698,0.13037 -2.15103,0.39109 -0.55406,0.26075 -0.9859,0.63555 -1.29551,1.12441 -0.29333,0.48888 -0.49702,1.08367 -0.61109,1.78437 -0.11407,0.68443 -0.17111,1.45033 -0.1711,2.2977 -1e-5,0.84738 0.057,1.62142 0.1711,2.32213 0.11407,0.68442 0.31776,1.27107 0.61109,1.75994 0.30961,0.48887 0.74145,0.86367 1.29551,1.1244 0.55405,0.26073 1.27105,0.39109 2.15103,0.39109 0.45627,0 0.89625,-0.0407 1.31995,-0.12221 0.42368,-0.0815 0.84737,-0.23629 1.27106,-0.46443 l 0.36665,0.87997"
         style="font-variant:normal;font-weight:bold;font-stretch:normal;fill:#fcfcfc;fill-opacity:1;font-family:EnzoComp-Light;-inkscape-font-specification:EnzoComp-Light Bold"
         id="path3014"
         inkscape:connector-curvature="0" />
      <path
         d="m 166.70171,544.68149 c -0.58665,0.3585 -1.21403,0.61109 -1.88215,0.75775 -0.66813,0.14666 -1.39329,0.21999 -2.17547,0.21999 -0.71702,0 -1.39329,-0.0896 -2.02881,-0.26888 -0.61924,-0.17925 -1.16515,-0.50517 -1.63772,-0.97774 -0.47258,-0.48887 -0.84738,-1.15699 -1.1244,-2.00437 -0.26074,-0.84737 -0.3911,-1.93104 -0.3911,-3.25099 0,-1.43401 0.14666,-2.57471 0.43998,-3.42209 0.30962,-0.86367 0.70072,-1.52364 1.17329,-1.97993 0.48887,-0.47256 1.02663,-0.78218 1.61328,-0.92885 0.60293,-0.14665 1.18958,-0.21998 1.75993,-0.22 0.7333,2e-5 1.39327,0.11409 1.97993,0.34221 0.60293,0.21186 1.10809,0.57036 1.5155,1.07552 0.40738,0.50518 0.71699,1.18145 0.92885,2.02881 0.22813,0.83109 0.3422,1.85772 0.34221,3.07989 l 0,0.0978 -8.75078,0.70886 c 0.0326,1.01034 0.16295,1.83327 0.39109,2.4688 0.22814,0.61924 0.52961,1.10811 0.90441,1.46661 0.3748,0.34221 0.80663,0.5785 1.29551,0.70886 0.50516,0.13037 1.04292,0.19555 1.61327,0.19555 0.68441,0 1.31994,-0.0733 1.9066,-0.21999 0.58663,-0.14666 1.17328,-0.38295 1.75993,-0.70886 l 0.36665,0.83108 m -0.48887,-6.25755 c -0.0163,-0.94514 -0.11408,-1.72733 -0.29332,-2.34658 -0.17926,-0.63552 -0.43184,-1.14068 -0.75775,-1.51549 -0.32592,-0.39109 -0.72516,-0.66812 -1.19773,-0.83108 -0.45629,-0.16295 -0.96145,-0.24443 -1.5155,-0.24444 -0.52147,10e-6 -1.02663,0.0652 -1.5155,0.19555 -0.47258,0.13038 -0.89626,0.39111 -1.27106,0.78219 -0.37481,0.37481 -0.67628,0.91257 -0.90441,1.61327 -0.21185,0.70073 -0.31777,1.61329 -0.31777,2.73768 l 0,0.24444 7.77304,-0.63554"
         style="font-variant:normal;font-weight:bold;font-stretch:normal;fill:#fcfcfc;fill-opacity:1;font-family:EnzoComp-Light;-inkscape-font-specification:EnzoComp-Light Bold"
         id="path3016"
         inkscape:connector-curvature="0" />
    </g>
  </g>
</svg>
