  0
SECTION
  2
BLOCKS
  0
ENDSEC
  0
SECTION
  2
ENTITIES
  0
LINE
  8
0
 10
0
 11
0
 20
0
 21
2.1
  0
LINE
  8
0
 10
0
 11
0.65
 20
2.1
 21
2.1
  0
LINE
  8
0
 10
0.65
 11
0.65
 20
2.1
 21
0
  0
LINE
  8
0
 10
0.65
 11
0
 20
0
 21
0
  0
LINE
  8
0
 10
0
 11
0
 20
3.6
 21
5.7
  0
LINE
  8
0
 10
0
 11
0.65
 20
5.7
 21
5.7
  0
LINE
  8
0
 10
0.65
 11
0.65
 20
5.7
 21
3.6
  0
LINE
  8
0
 10
0.65
 11
0
 20
3.6
 21
3.6
  0
LINE
  8
0
 10
0.275
 11
0.275
 20
2.209
 21
2.221
  0
LINE
  8
0
 10
0.275
 11
0.276
 20
2.221
 21
2.224
  0
LINE
  8
0
 10
0.276
 11
0.277
 20
2.224
 21
2.227
  0
LINE
  8
0
 10
0.277
 11
0.277
 20
2.227
 21
2.23
  0
LINE
  8
0
 10
0.277
 11
0.279
 20
2.23
 21
2.233
  0
LINE
  8
0
 10
0.279
 11
0.281
 20
2.233
 21
2.239
  0
LINE
  8
0
 10
0.281
 11
0.283
 20
2.239
 21
2.242
  0
LINE
  8
0
 10
0.283
 11
0.285
 20
2.242
 21
2.244
  0
LINE
  8
0
 10
0.285
 11
0.286
 20
2.244
 21
2.247
  0
LINE
  8
0
 10
0.286
 11
0.289
 20
2.247
 21
2.249
  0
LINE
  8
0
 10
0.289
 11
0.291
 20
2.249
 21
2.251
  0
LINE
  8
0
 10
0.291
 11
0.293
 20
2.251
 21
2.254
  0
LINE
  8
0
 10
0.293
 11
0.296
 20
2.254
 21
2.255
  0
LINE
  8
0
 10
0.296
 11
0.298
 20
2.255
 21
2.257
  0
LINE
  8
0
 10
0.298
 11
0.301
 20
2.257
 21
2.259
  0
LINE
  8
0
 10
0.301
 11
0.307
 20
2.259
 21
2.261
  0
LINE
  8
0
 10
0.307
 11
0.31
 20
2.261
 21
2.263
  0
LINE
  8
0
 10
0.31
 11
0.313
 20
2.263
 21
2.263
  0
LINE
  8
0
 10
0.313
 11
0.316
 20
2.263
 21
2.264
  0
LINE
  8
0
 10
0.316
 11
0.319
 20
2.264
 21
2.265
  0
LINE
  8
0
 10
0.319
 11
0.331
 20
2.265
 21
2.265
  0
LINE
  8
0
 10
0.331
 11
0.334
 20
2.265
 21
2.264
  0
LINE
  8
0
 10
0.334
 11
0.337
 20
2.264
 21
2.263
  0
LINE
  8
0
 10
0.337
 11
0.34
 20
2.263
 21
2.263
  0
LINE
  8
0
 10
0.34
 11
0.343
 20
2.263
 21
2.261
  0
LINE
  8
0
 10
0.343
 11
0.349
 20
2.261
 21
2.259
  0
LINE
  8
0
 10
0.349
 11
0.352
 20
2.259
 21
2.257
  0
LINE
  8
0
 10
0.352
 11
0.354
 20
2.257
 21
2.255
  0
LINE
  8
0
 10
0.354
 11
0.357
 20
2.255
 21
2.254
  0
LINE
  8
0
 10
0.357
 11
0.359
 20
2.254
 21
2.251
  0
LINE
  8
0
 10
0.359
 11
0.361
 20
2.251
 21
2.249
  0
LINE
  8
0
 10
0.361
 11
0.364
 20
2.249
 21
2.247
  0
LINE
  8
0
 10
0.364
 11
0.365
 20
2.247
 21
2.244
  0
LINE
  8
0
 10
0.365
 11
0.367
 20
2.244
 21
2.242
  0
LINE
  8
0
 10
0.367
 11
0.369
 20
2.242
 21
2.239
  0
LINE
  8
0
 10
0.369
 11
0.371
 20
2.239
 21
2.233
  0
LINE
  8
0
 10
0.371
 11
0.373
 20
2.233
 21
2.23
  0
LINE
  8
0
 10
0.373
 11
0.373
 20
2.23
 21
2.227
  0
LINE
  8
0
 10
0.373
 11
0.374
 20
2.227
 21
2.224
  0
LINE
  8
0
 10
0.374
 11
0.375
 20
2.224
 21
2.221
  0
LINE
  8
0
 10
0.375
 11
0.375
 20
2.221
 21
2.209
  0
LINE
  8
0
 10
0.375
 11
0.373
 20
2.209
 21
2.203
  0
LINE
  8
0
 10
0.373
 11
0.373
 20
2.203
 21
2.2
  0
LINE
  8
0
 10
0.373
 11
0.371
 20
2.2
 21
2.197
  0
LINE
  8
0
 10
0.371
 11
0.369
 20
2.197
 21
2.191
  0
LINE
  8
0
 10
0.369
 11
0.367
 20
2.191
 21
2.188
  0
LINE
  8
0
 10
0.367
 11
0.365
 20
2.188
 21
2.186
  0
LINE
  8
0
 10
0.365
 11
0.364
 20
2.186
 21
2.183
  0
LINE
  8
0
 10
0.364
 11
0.361
 20
2.183
 21
2.181
  0
LINE
  8
0
 10
0.361
 11
0.359
 20
2.181
 21
2.179
  0
LINE
  8
0
 10
0.359
 11
0.357
 20
2.179
 21
2.176
  0
LINE
  8
0
 10
0.357
 11
0.354
 20
2.176
 21
2.175
  0
LINE
  8
0
 10
0.354
 11
0.352
 20
2.175
 21
2.173
  0
LINE
  8
0
 10
0.352
 11
0.349
 20
2.173
 21
2.171
  0
LINE
  8
0
 10
0.349
 11
0.343
 20
2.171
 21
2.169
  0
LINE
  8
0
 10
0.343
 11
0.34
 20
2.169
 21
2.167
  0
LINE
  8
0
 10
0.34
 11
0.337
 20
2.167
 21
2.167
  0
LINE
  8
0
 10
0.337
 11
0.334
 20
2.167
 21
2.166
  0
LINE
  8
0
 10
0.334
 11
0.331
 20
2.166
 21
2.165
  0
LINE
  8
0
 10
0.331
 11
0.319
 20
2.165
 21
2.165
  0
LINE
  8
0
 10
0.319
 11
0.316
 20
2.165
 21
2.166
  0
LINE
  8
0
 10
0.316
 11
0.313
 20
2.166
 21
2.167
  0
LINE
  8
0
 10
0.313
 11
0.31
 20
2.167
 21
2.167
  0
LINE
  8
0
 10
0.31
 11
0.307
 20
2.167
 21
2.169
  0
LINE
  8
0
 10
0.307
 11
0.301
 20
2.169
 21
2.171
  0
LINE
  8
0
 10
0.301
 11
0.298
 20
2.171
 21
2.173
  0
LINE
  8
0
 10
0.298
 11
0.296
 20
2.173
 21
2.175
  0
LINE
  8
0
 10
0.296
 11
0.293
 20
2.175
 21
2.176
  0
LINE
  8
0
 10
0.293
 11
0.291
 20
2.176
 21
2.179
  0
LINE
  8
0
 10
0.291
 11
0.289
 20
2.179
 21
2.181
  0
LINE
  8
0
 10
0.289
 11
0.286
 20
2.181
 21
2.183
  0
LINE
  8
0
 10
0.286
 11
0.285
 20
2.183
 21
2.186
  0
LINE
  8
0
 10
0.285
 11
0.283
 20
2.186
 21
2.188
  0
LINE
  8
0
 10
0.283
 11
0.281
 20
2.188
 21
2.191
  0
LINE
  8
0
 10
0.281
 11
0.279
 20
2.191
 21
2.197
  0
LINE
  8
0
 10
0.279
 11
0.277
 20
2.197
 21
2.2
  0
LINE
  8
0
 10
0.277
 11
0.277
 20
2.2
 21
2.203
  0
LINE
  8
0
 10
0.277
 11
0.275
 20
2.203
 21
2.209
  0
LINE
  8
0
 10
0.275
 11
0.275
 20
3.479
 21
3.491
  0
LINE
  8
0
 10
0.275
 11
0.276
 20
3.491
 21
3.494
  0
LINE
  8
0
 10
0.276
 11
0.277
 20
3.494
 21
3.497
  0
LINE
  8
0
 10
0.277
 11
0.277
 20
3.497
 21
3.5
  0
LINE
  8
0
 10
0.277
 11
0.279
 20
3.5
 21
3.503
  0
LINE
  8
0
 10
0.279
 11
0.281
 20
3.503
 21
3.509
  0
LINE
  8
0
 10
0.281
 11
0.283
 20
3.509
 21
3.512
  0
LINE
  8
0
 10
0.283
 11
0.285
 20
3.512
 21
3.514
  0
LINE
  8
0
 10
0.285
 11
0.286
 20
3.514
 21
3.517
  0
LINE
  8
0
 10
0.286
 11
0.289
 20
3.517
 21
3.519
  0
LINE
  8
0
 10
0.289
 11
0.291
 20
3.519
 21
3.521
  0
LINE
  8
0
 10
0.291
 11
0.293
 20
3.521
 21
3.524
  0
LINE
  8
0
 10
0.293
 11
0.296
 20
3.524
 21
3.525
  0
LINE
  8
0
 10
0.296
 11
0.298
 20
3.525
 21
3.527
  0
LINE
  8
0
 10
0.298
 11
0.301
 20
3.527
 21
3.529
  0
LINE
  8
0
 10
0.301
 11
0.307
 20
3.529
 21
3.531
  0
LINE
  8
0
 10
0.307
 11
0.31
 20
3.531
 21
3.533
  0
LINE
  8
0
 10
0.31
 11
0.313
 20
3.533
 21
3.533
  0
LINE
  8
0
 10
0.313
 11
0.316
 20
3.533
 21
3.534
  0
LINE
  8
0
 10
0.316
 11
0.319
 20
3.534
 21
3.535
  0
LINE
  8
0
 10
0.319
 11
0.331
 20
3.535
 21
3.535
  0
LINE
  8
0
 10
0.331
 11
0.334
 20
3.535
 21
3.534
  0
LINE
  8
0
 10
0.334
 11
0.337
 20
3.534
 21
3.533
  0
LINE
  8
0
 10
0.337
 11
0.34
 20
3.533
 21
3.533
  0
LINE
  8
0
 10
0.34
 11
0.343
 20
3.533
 21
3.531
  0
LINE
  8
0
 10
0.343
 11
0.349
 20
3.531
 21
3.529
  0
LINE
  8
0
 10
0.349
 11
0.352
 20
3.529
 21
3.527
  0
LINE
  8
0
 10
0.352
 11
0.354
 20
3.527
 21
3.525
  0
LINE
  8
0
 10
0.354
 11
0.357
 20
3.525
 21
3.524
  0
LINE
  8
0
 10
0.357
 11
0.359
 20
3.524
 21
3.521
  0
LINE
  8
0
 10
0.359
 11
0.361
 20
3.521
 21
3.519
  0
LINE
  8
0
 10
0.361
 11
0.364
 20
3.519
 21
3.517
  0
LINE
  8
0
 10
0.364
 11
0.365
 20
3.517
 21
3.514
  0
LINE
  8
0
 10
0.365
 11
0.367
 20
3.514
 21
3.512
  0
LINE
  8
0
 10
0.367
 11
0.369
 20
3.512
 21
3.509
  0
LINE
  8
0
 10
0.369
 11
0.371
 20
3.509
 21
3.503
  0
LINE
  8
0
 10
0.371
 11
0.373
 20
3.503
 21
3.5
  0
LINE
  8
0
 10
0.373
 11
0.373
 20
3.5
 21
3.497
  0
LINE
  8
0
 10
0.373
 11
0.374
 20
3.497
 21
3.494
  0
LINE
  8
0
 10
0.374
 11
0.375
 20
3.494
 21
3.491
  0
LINE
  8
0
 10
0.375
 11
0.375
 20
3.491
 21
3.479
  0
LINE
  8
0
 10
0.375
 11
0.373
 20
3.479
 21
3.473
  0
LINE
  8
0
 10
0.373
 11
0.373
 20
3.473
 21
3.47
  0
LINE
  8
0
 10
0.373
 11
0.371
 20
3.47
 21
3.467
  0
LINE
  8
0
 10
0.371
 11
0.369
 20
3.467
 21
3.461
  0
LINE
  8
0
 10
0.369
 11
0.367
 20
3.461
 21
3.458
  0
LINE
  8
0
 10
0.367
 11
0.365
 20
3.458
 21
3.456
  0
LINE
  8
0
 10
0.365
 11
0.364
 20
3.456
 21
3.453
  0
LINE
  8
0
 10
0.364
 11
0.361
 20
3.453
 21
3.451
  0
LINE
  8
0
 10
0.361
 11
0.359
 20
3.451
 21
3.449
  0
LINE
  8
0
 10
0.359
 11
0.357
 20
3.449
 21
3.446
  0
LINE
  8
0
 10
0.357
 11
0.354
 20
3.446
 21
3.445
  0
LINE
  8
0
 10
0.354
 11
0.352
 20
3.445
 21
3.443
  0
LINE
  8
0
 10
0.352
 11
0.349
 20
3.443
 21
3.441
  0
LINE
  8
0
 10
0.349
 11
0.343
 20
3.441
 21
3.439
  0
LINE
  8
0
 10
0.343
 11
0.34
 20
3.439
 21
3.437
  0
LINE
  8
0
 10
0.34
 11
0.337
 20
3.437
 21
3.437
  0
LINE
  8
0
 10
0.337
 11
0.334
 20
3.437
 21
3.436
  0
LINE
  8
0
 10
0.334
 11
0.331
 20
3.436
 21
3.435
  0
LINE
  8
0
 10
0.331
 11
0.319
 20
3.435
 21
3.435
  0
LINE
  8
0
 10
0.319
 11
0.316
 20
3.435
 21
3.436
  0
LINE
  8
0
 10
0.316
 11
0.313
 20
3.436
 21
3.437
  0
LINE
  8
0
 10
0.313
 11
0.31
 20
3.437
 21
3.437
  0
LINE
  8
0
 10
0.31
 11
0.307
 20
3.437
 21
3.439
  0
LINE
  8
0
 10
0.307
 11
0.301
 20
3.439
 21
3.441
  0
LINE
  8
0
 10
0.301
 11
0.298
 20
3.441
 21
3.443
  0
LINE
  8
0
 10
0.298
 11
0.296
 20
3.443
 21
3.445
  0
LINE
  8
0
 10
0.296
 11
0.293
 20
3.445
 21
3.446
  0
LINE
  8
0
 10
0.293
 11
0.291
 20
3.446
 21
3.449
  0
LINE
  8
0
 10
0.291
 11
0.289
 20
3.449
 21
3.451
  0
LINE
  8
0
 10
0.289
 11
0.286
 20
3.451
 21
3.453
  0
LINE
  8
0
 10
0.286
 11
0.285
 20
3.453
 21
3.456
  0
LINE
  8
0
 10
0.285
 11
0.283
 20
3.456
 21
3.458
  0
LINE
  8
0
 10
0.283
 11
0.281
 20
3.458
 21
3.461
  0
LINE
  8
0
 10
0.281
 11
0.279
 20
3.461
 21
3.467
  0
LINE
  8
0
 10
0.279
 11
0.277
 20
3.467
 21
3.47
  0
LINE
  8
0
 10
0.277
 11
0.277
 20
3.47
 21
3.473
  0
LINE
  8
0
 10
0.277
 11
0.275
 20
3.473
 21
3.479
  0
LINE
  8
0
 10
1.27
 11
1.27
 20
0
 21
2.1
  0
LINE
  8
0
 10
1.27
 11
1.92
 20
2.1
 21
2.1
  0
LINE
  8
0
 10
1.92
 11
1.92
 20
2.1
 21
0
  0
LINE
  8
0
 10
1.92
 11
1.27
 20
0
 21
0
  0
LINE
  8
0
 10
1.27
 11
1.27
 20
3.6
 21
5.7
  0
LINE
  8
0
 10
1.27
 11
1.92
 20
5.7
 21
5.7
  0
LINE
  8
0
 10
1.92
 11
1.92
 20
5.7
 21
3.6
  0
LINE
  8
0
 10
1.92
 11
1.27
 20
3.6
 21
3.6
  0
LINE
  8
0
 10
2.54
 11
2.54
 20
0
 21
2.1
  0
LINE
  8
0
 10
2.54
 11
3.19
 20
2.1
 21
2.1
  0
LINE
  8
0
 10
3.19
 11
3.19
 20
2.1
 21
0
  0
LINE
  8
0
 10
3.19
 11
2.54
 20
0
 21
0
  0
LINE
  8
0
 10
2.54
 11
2.54
 20
3.6
 21
5.7
  0
LINE
  8
0
 10
2.54
 11
3.19
 20
5.7
 21
5.7
  0
LINE
  8
0
 10
3.19
 11
3.19
 20
5.7
 21
3.6
  0
LINE
  8
0
 10
3.19
 11
2.54
 20
3.6
 21
3.6
  0
LINE
  8
0
 10
3.81
 11
3.81
 20
0
 21
2.1
  0
LINE
  8
0
 10
3.81
 11
4.46
 20
2.1
 21
2.1
  0
LINE
  8
0
 10
4.46
 11
4.46
 20
2.1
 21
0
  0
LINE
  8
0
 10
4.46
 11
3.81
 20
0
 21
0
  0
LINE
  8
0
 10
3.81
 11
3.81
 20
3.6
 21
5.7
  0
LINE
  8
0
 10
3.81
 11
4.46
 20
5.7
 21
5.7
  0
LINE
  8
0
 10
4.46
 11
4.46
 20
5.7
 21
3.6
  0
LINE
  8
0
 10
4.46
 11
3.81
 20
3.6
 21
3.6
  0
LINE
  8
0
 10
5.08
 11
5.08
 20
0
 21
2.1
  0
LINE
  8
0
 10
5.08
 11
5.73
 20
2.1
 21
2.1
  0
LINE
  8
0
 10
5.73
 11
5.73
 20
2.1
 21
0
  0
LINE
  8
0
 10
5.73
 11
5.08
 20
0
 21
0
  0
LINE
  8
0
 10
5.08
 11
5.08
 20
3.6
 21
5.7
  0
LINE
  8
0
 10
5.08
 11
5.73
 20
5.7
 21
5.7
  0
LINE
  8
0
 10
5.73
 11
5.73
 20
5.7
 21
3.6
  0
LINE
  8
0
 10
5.73
 11
5.08
 20
3.6
 21
3.6
  0
LINE
  8
0
 10
6.35
 11
6.35
 20
0
 21
2.1
  0
LINE
  8
0
 10
6.35
 11
7
 20
2.1
 21
2.1
  0
LINE
  8
0
 10
7
 11
7
 20
2.1
 21
0
  0
LINE
  8
0
 10
7
 11
6.35
 20
0
 21
0
  0
LINE
  8
0
 10
6.35
 11
6.35
 20
3.6
 21
5.7
  0
LINE
  8
0
 10
6.35
 11
7
 20
5.7
 21
5.7
  0
LINE
  8
0
 10
7
 11
7
 20
5.7
 21
3.6
  0
LINE
  8
0
 10
7
 11
6.35
 20
3.6
 21
3.6
  0
LINE
  8
0
 10
7.62
 11
7.62
 20
0
 21
2.1
  0
LINE
  8
0
 10
7.62
 11
8.27
 20
2.1
 21
2.1
  0
LINE
  8
0
 10
8.27
 11
8.27
 20
2.1
 21
0
  0
LINE
  8
0
 10
8.27
 11
7.62
 20
0
 21
0
  0
LINE
  8
0
 10
7.62
 11
7.62
 20
3.6
 21
5.7
  0
LINE
  8
0
 10
7.62
 11
8.27
 20
5.7
 21
5.7
  0
LINE
  8
0
 10
8.27
 11
8.27
 20
5.7
 21
3.6
  0
LINE
  8
0
 10
8.27
 11
7.62
 20
3.6
 21
3.6
  0
LINE
  8
0
 10
8.89
 11
8.89
 20
0
 21
2.1
  0
LINE
  8
0
 10
8.89
 11
9.54
 20
2.1
 21
2.1
  0
LINE
  8
0
 10
9.54
 11
9.54
 20
2.1
 21
0
  0
LINE
  8
0
 10
9.54
 11
8.89
 20
0
 21
0
  0
LINE
  8
0
 10
8.89
 11
8.89
 20
3.6
 21
5.7
  0
LINE
  8
0
 10
8.89
 11
9.54
 20
5.7
 21
5.7
  0
LINE
  8
0
 10
9.54
 11
9.54
 20
5.7
 21
3.6
  0
LINE
  8
0
 10
9.54
 11
8.89
 20
3.6
 21
3.6
  0
LINE
  8
0
 10
10.16
 11
10.16
 20
0
 21
2.1
  0
LINE
  8
0
 10
10.16
 11
10.81
 20
2.1
 21
2.1
  0
LINE
  8
0
 10
10.81
 11
10.81
 20
2.1
 21
0
  0
LINE
  8
0
 10
10.81
 11
10.16
 20
0
 21
0
  0
LINE
  8
0
 10
10.16
 11
10.16
 20
3.6
 21
5.7
  0
LINE
  8
0
 10
10.16
 11
10.81
 20
5.7
 21
5.7
  0
LINE
  8
0
 10
10.81
 11
10.81
 20
5.7
 21
3.6
  0
LINE
  8
0
 10
10.81
 11
10.16
 20
3.6
 21
3.6
  0
LINE
  8
0
 10
11.43
 11
11.43
 20
0
 21
2.1
  0
LINE
  8
0
 10
11.43
 11
12.08
 20
2.1
 21
2.1
  0
LINE
  8
0
 10
12.08
 11
12.08
 20
2.1
 21
0
  0
LINE
  8
0
 10
12.08
 11
11.43
 20
0
 21
0
  0
LINE
  8
0
 10
11.43
 11
11.43
 20
3.6
 21
5.7
  0
LINE
  8
0
 10
11.43
 11
12.08
 20
5.7
 21
5.7
  0
LINE
  8
0
 10
12.08
 11
12.08
 20
5.7
 21
3.6
  0
LINE
  8
0
 10
12.08
 11
11.43
 20
3.6
 21
3.6
  0
LINE
  8
0
 10
12.7
 11
12.7
 20
0
 21
2.1
  0
LINE
  8
0
 10
12.7
 11
13.35
 20
2.1
 21
2.1
  0
LINE
  8
0
 10
13.35
 11
13.35
 20
2.1
 21
0
  0
LINE
  8
0
 10
13.35
 11
12.7
 20
0
 21
0
  0
LINE
  8
0
 10
12.7
 11
12.7
 20
3.6
 21
5.7
  0
LINE
  8
0
 10
12.7
 11
13.35
 20
5.7
 21
5.7
  0
LINE
  8
0
 10
13.35
 11
13.35
 20
5.7
 21
3.6
  0
LINE
  8
0
 10
13.35
 11
12.7
 20
3.6
 21
3.6
  0
LINE
  8
0
 10
13.97
 11
13.97
 20
0
 21
2.1
  0
LINE
  8
0
 10
13.97
 11
14.62
 20
2.1
 21
2.1
  0
LINE
  8
0
 10
14.62
 11
14.62
 20
2.1
 21
0
  0
LINE
  8
0
 10
14.62
 11
13.97
 20
0
 21
0
  0
LINE
  8
0
 10
13.97
 11
13.97
 20
3.6
 21
5.7
  0
LINE
  8
0
 10
13.97
 11
14.62
 20
5.7
 21
5.7
  0
LINE
  8
0
 10
14.62
 11
14.62
 20
5.7
 21
3.6
  0
LINE
  8
0
 10
14.62
 11
13.97
 20
3.6
 21
3.6
  0
LINE
  8
0
 10
15.24
 11
15.24
 20
0
 21
2.1
  0
LINE
  8
0
 10
15.24
 11
15.89
 20
2.1
 21
2.1
  0
LINE
  8
0
 10
15.89
 11
15.89
 20
2.1
 21
0
  0
LINE
  8
0
 10
15.89
 11
15.24
 20
0
 21
0
  0
LINE
  8
0
 10
15.24
 11
15.24
 20
3.6
 21
5.7
  0
LINE
  8
0
 10
15.24
 11
15.89
 20
5.7
 21
5.7
  0
LINE
  8
0
 10
15.89
 11
15.89
 20
5.7
 21
3.6
  0
LINE
  8
0
 10
15.89
 11
15.24
 20
3.6
 21
3.6
  0
LINE
  8
0
 10
16.51
 11
16.51
 20
0
 21
2.1
  0
LINE
  8
0
 10
16.51
 11
17.16
 20
2.1
 21
2.1
  0
LINE
  8
0
 10
17.16
 11
17.16
 20
2.1
 21
0
  0
LINE
  8
0
 10
17.16
 11
16.51
 20
0
 21
0
  0
LINE
  8
0
 10
16.51
 11
16.51
 20
3.6
 21
5.7
  0
LINE
  8
0
 10
16.51
 11
17.16
 20
5.7
 21
5.7
  0
LINE
  8
0
 10
17.16
 11
17.16
 20
5.7
 21
3.6
  0
LINE
  8
0
 10
17.16
 11
16.51
 20
3.6
 21
3.6
  0
LINE
  8
0
 10
17.78
 11
17.78
 20
0
 21
2.1
  0
LINE
  8
0
 10
17.78
 11
18.43
 20
2.1
 21
2.1
  0
LINE
  8
0
 10
18.43
 11
18.43
 20
2.1
 21
0
  0
LINE
  8
0
 10
18.43
 11
17.78
 20
0
 21
0
  0
LINE
  8
0
 10
17.78
 11
17.78
 20
3.6
 21
5.7
  0
LINE
  8
0
 10
17.78
 11
18.43
 20
5.7
 21
5.7
  0
LINE
  8
0
 10
18.43
 11
18.43
 20
5.7
 21
3.6
  0
LINE
  8
0
 10
18.43
 11
17.78
 20
3.6
 21
3.6
  0
LINE
  8
0
 10
19.05
 11
19.05
 20
0
 21
2.1
  0
LINE
  8
0
 10
19.05
 11
19.7
 20
2.1
 21
2.1
  0
LINE
  8
0
 10
19.7
 11
19.7
 20
2.1
 21
0
  0
LINE
  8
0
 10
19.7
 11
19.05
 20
0
 21
0
  0
LINE
  8
0
 10
19.05
 11
19.05
 20
3.6
 21
5.7
  0
LINE
  8
0
 10
19.05
 11
19.7
 20
5.7
 21
5.7
  0
LINE
  8
0
 10
19.7
 11
19.7
 20
5.7
 21
3.6
  0
LINE
  8
0
 10
19.7
 11
19.05
 20
3.6
 21
3.6
  0
LINE
  8
0
 10
20.32
 11
20.32
 20
0
 21
2.1
  0
LINE
  8
0
 10
20.32
 11
20.97
 20
2.1
 21
2.1
  0
LINE
  8
0
 10
20.97
 11
20.97
 20
2.1
 21
0
  0
LINE
  8
0
 10
20.97
 11
20.32
 20
0
 21
0
  0
LINE
  8
0
 10
20.32
 11
20.32
 20
3.6
 21
5.7
  0
LINE
  8
0
 10
20.32
 11
20.97
 20
5.7
 21
5.7
  0
LINE
  8
0
 10
20.97
 11
20.97
 20
5.7
 21
3.6
  0
LINE
  8
0
 10
20.97
 11
20.32
 20
3.6
 21
3.6
  0
LINE
  8
0
 10
21.59
 11
21.59
 20
0
 21
2.1
  0
LINE
  8
0
 10
21.59
 11
22.24
 20
2.1
 21
2.1
  0
LINE
  8
0
 10
22.24
 11
22.24
 20
2.1
 21
0
  0
LINE
  8
0
 10
22.24
 11
21.59
 20
0
 21
0
  0
LINE
  8
0
 10
21.59
 11
21.59
 20
3.6
 21
5.7
  0
LINE
  8
0
 10
21.59
 11
22.24
 20
5.7
 21
5.7
  0
LINE
  8
0
 10
22.24
 11
22.24
 20
5.7
 21
3.6
  0
LINE
  8
0
 10
22.24
 11
21.59
 20
3.6
 21
3.6
  0
LINE
  8
0
 10
22.86
 11
22.86
 20
0
 21
2.1
  0
LINE
  8
0
 10
22.86
 11
23.51
 20
2.1
 21
2.1
  0
LINE
  8
0
 10
23.51
 11
23.51
 20
2.1
 21
0
  0
LINE
  8
0
 10
23.51
 11
22.86
 20
0
 21
0
  0
LINE
  8
0
 10
22.86
 11
22.86
 20
3.6
 21
5.7
  0
LINE
  8
0
 10
22.86
 11
23.51
 20
5.7
 21
5.7
  0
LINE
  8
0
 10
23.51
 11
23.51
 20
5.7
 21
3.6
  0
LINE
  8
0
 10
23.51
 11
22.86
 20
3.6
 21
3.6
  0
LINE
  8
0
 10
24.13
 11
24.13
 20
0
 21
2.1
  0
LINE
  8
0
 10
24.13
 11
24.78
 20
2.1
 21
2.1
  0
LINE
  8
0
 10
24.78
 11
24.78
 20
2.1
 21
0
  0
LINE
  8
0
 10
24.78
 11
24.13
 20
0
 21
0
  0
LINE
  8
0
 10
24.13
 11
24.13
 20
3.6
 21
5.7
  0
LINE
  8
0
 10
24.13
 11
24.78
 20
5.7
 21
5.7
  0
LINE
  8
0
 10
24.78
 11
24.78
 20
5.7
 21
3.6
  0
LINE
  8
0
 10
24.78
 11
24.13
 20
3.6
 21
3.6
  0
LINE
  8
0
 10
24.405
 11
24.405
 20
2.209
 21
2.221
  0
LINE
  8
0
 10
24.405
 11
24.406
 20
2.221
 21
2.224
  0
LINE
  8
0
 10
24.406
 11
24.407
 20
2.224
 21
2.227
  0
LINE
  8
0
 10
24.407
 11
24.407
 20
2.227
 21
2.23
  0
LINE
  8
0
 10
24.407
 11
24.409
 20
2.23
 21
2.233
  0
LINE
  8
0
 10
24.409
 11
24.411
 20
2.233
 21
2.239
  0
LINE
  8
0
 10
24.411
 11
24.413
 20
2.239
 21
2.242
  0
LINE
  8
0
 10
24.413
 11
24.415
 20
2.242
 21
2.244
  0
LINE
  8
0
 10
24.415
 11
24.416
 20
2.244
 21
2.247
  0
LINE
  8
0
 10
24.416
 11
24.419
 20
2.247
 21
2.249
  0
LINE
  8
0
 10
24.419
 11
24.421
 20
2.249
 21
2.251
  0
LINE
  8
0
 10
24.421
 11
24.423
 20
2.251
 21
2.254
  0
LINE
  8
0
 10
24.423
 11
24.426
 20
2.254
 21
2.255
  0
LINE
  8
0
 10
24.426
 11
24.428
 20
2.255
 21
2.257
  0
LINE
  8
0
 10
24.428
 11
24.431
 20
2.257
 21
2.259
  0
LINE
  8
0
 10
24.431
 11
24.437
 20
2.259
 21
2.261
  0
LINE
  8
0
 10
24.437
 11
24.44
 20
2.261
 21
2.263
  0
LINE
  8
0
 10
24.44
 11
24.443
 20
2.263
 21
2.263
  0
LINE
  8
0
 10
24.443
 11
24.446
 20
2.263
 21
2.264
  0
LINE
  8
0
 10
24.446
 11
24.449
 20
2.264
 21
2.265
  0
LINE
  8
0
 10
24.449
 11
24.461
 20
2.265
 21
2.265
  0
LINE
  8
0
 10
24.461
 11
24.464
 20
2.265
 21
2.264
  0
LINE
  8
0
 10
24.464
 11
24.467
 20
2.264
 21
2.263
  0
LINE
  8
0
 10
24.467
 11
24.47
 20
2.263
 21
2.263
  0
LINE
  8
0
 10
24.47
 11
24.473
 20
2.263
 21
2.261
  0
LINE
  8
0
 10
24.473
 11
24.479
 20
2.261
 21
2.259
  0
LINE
  8
0
 10
24.479
 11
24.482
 20
2.259
 21
2.257
  0
LINE
  8
0
 10
24.482
 11
24.484
 20
2.257
 21
2.255
  0
LINE
  8
0
 10
24.484
 11
24.487
 20
2.255
 21
2.254
  0
LINE
  8
0
 10
24.487
 11
24.489
 20
2.254
 21
2.251
  0
LINE
  8
0
 10
24.489
 11
24.491
 20
2.251
 21
2.249
  0
LINE
  8
0
 10
24.491
 11
24.494
 20
2.249
 21
2.247
  0
LINE
  8
0
 10
24.494
 11
24.495
 20
2.247
 21
2.244
  0
LINE
  8
0
 10
24.495
 11
24.497
 20
2.244
 21
2.242
  0
LINE
  8
0
 10
24.497
 11
24.499
 20
2.242
 21
2.239
  0
LINE
  8
0
 10
24.499
 11
24.501
 20
2.239
 21
2.233
  0
LINE
  8
0
 10
24.501
 11
24.503
 20
2.233
 21
2.23
  0
LINE
  8
0
 10
24.503
 11
24.503
 20
2.23
 21
2.227
  0
LINE
  8
0
 10
24.503
 11
24.504
 20
2.227
 21
2.224
  0
LINE
  8
0
 10
24.504
 11
24.505
 20
2.224
 21
2.221
  0
LINE
  8
0
 10
24.505
 11
24.505
 20
2.221
 21
2.209
  0
LINE
  8
0
 10
24.505
 11
24.504
 20
2.209
 21
2.206
  0
LINE
  8
0
 10
24.504
 11
24.503
 20
2.206
 21
2.203
  0
LINE
  8
0
 10
24.503
 11
24.503
 20
2.203
 21
2.2
  0
LINE
  8
0
 10
24.503
 11
24.501
 20
2.2
 21
2.197
  0
LINE
  8
0
 10
24.501
 11
24.499
 20
2.197
 21
2.191
  0
LINE
  8
0
 10
24.499
 11
24.497
 20
2.191
 21
2.188
  0
LINE
  8
0
 10
24.497
 11
24.495
 20
2.188
 21
2.186
  0
LINE
  8
0
 10
24.495
 11
24.494
 20
2.186
 21
2.183
  0
LINE
  8
0
 10
24.494
 11
24.491
 20
2.183
 21
2.181
  0
LINE
  8
0
 10
24.491
 11
24.489
 20
2.181
 21
2.179
  0
LINE
  8
0
 10
24.489
 11
24.487
 20
2.179
 21
2.176
  0
LINE
  8
0
 10
24.487
 11
24.484
 20
2.176
 21
2.175
  0
LINE
  8
0
 10
24.484
 11
24.482
 20
2.175
 21
2.173
  0
LINE
  8
0
 10
24.482
 11
24.479
 20
2.173
 21
2.171
  0
LINE
  8
0
 10
24.479
 11
24.473
 20
2.171
 21
2.169
  0
LINE
  8
0
 10
24.473
 11
24.47
 20
2.169
 21
2.167
  0
LINE
  8
0
 10
24.47
 11
24.467
 20
2.167
 21
2.167
  0
LINE
  8
0
 10
24.467
 11
24.464
 20
2.167
 21
2.166
  0
LINE
  8
0
 10
24.464
 11
24.461
 20
2.166
 21
2.165
  0
LINE
  8
0
 10
24.461
 11
24.449
 20
2.165
 21
2.165
  0
LINE
  8
0
 10
24.449
 11
24.446
 20
2.165
 21
2.166
  0
LINE
  8
0
 10
24.446
 11
24.443
 20
2.166
 21
2.167
  0
LINE
  8
0
 10
24.443
 11
24.44
 20
2.167
 21
2.167
  0
LINE
  8
0
 10
24.44
 11
24.437
 20
2.167
 21
2.169
  0
LINE
  8
0
 10
24.437
 11
24.431
 20
2.169
 21
2.171
  0
LINE
  8
0
 10
24.431
 11
24.428
 20
2.171
 21
2.173
  0
LINE
  8
0
 10
24.428
 11
24.426
 20
2.173
 21
2.175
  0
LINE
  8
0
 10
24.426
 11
24.423
 20
2.175
 21
2.176
  0
LINE
  8
0
 10
24.423
 11
24.421
 20
2.176
 21
2.179
  0
LINE
  8
0
 10
24.421
 11
24.419
 20
2.179
 21
2.181
  0
LINE
  8
0
 10
24.419
 11
24.416
 20
2.181
 21
2.183
  0
LINE
  8
0
 10
24.416
 11
24.415
 20
2.183
 21
2.186
  0
LINE
  8
0
 10
24.415
 11
24.413
 20
2.186
 21
2.188
  0
LINE
  8
0
 10
24.413
 11
24.411
 20
2.188
 21
2.191
  0
LINE
  8
0
 10
24.411
 11
24.409
 20
2.191
 21
2.197
  0
LINE
  8
0
 10
24.409
 11
24.407
 20
2.197
 21
2.2
  0
LINE
  8
0
 10
24.407
 11
24.407
 20
2.2
 21
2.203
  0
LINE
  8
0
 10
24.407
 11
24.406
 20
2.203
 21
2.206
  0
LINE
  8
0
 10
24.406
 11
24.405
 20
2.206
 21
2.209
  0
LINE
  8
0
 10
24.405
 11
24.405
 20
3.479
 21
3.491
  0
LINE
  8
0
 10
24.405
 11
24.406
 20
3.491
 21
3.494
  0
LINE
  8
0
 10
24.406
 11
24.407
 20
3.494
 21
3.497
  0
LINE
  8
0
 10
24.407
 11
24.407
 20
3.497
 21
3.5
  0
LINE
  8
0
 10
24.407
 11
24.409
 20
3.5
 21
3.503
  0
LINE
  8
0
 10
24.409
 11
24.411
 20
3.503
 21
3.509
  0
LINE
  8
0
 10
24.411
 11
24.413
 20
3.509
 21
3.512
  0
LINE
  8
0
 10
24.413
 11
24.415
 20
3.512
 21
3.514
  0
LINE
  8
0
 10
24.415
 11
24.416
 20
3.514
 21
3.517
  0
LINE
  8
0
 10
24.416
 11
24.419
 20
3.517
 21
3.519
  0
LINE
  8
0
 10
24.419
 11
24.421
 20
3.519
 21
3.521
  0
LINE
  8
0
 10
24.421
 11
24.423
 20
3.521
 21
3.524
  0
LINE
  8
0
 10
24.423
 11
24.426
 20
3.524
 21
3.525
  0
LINE
  8
0
 10
24.426
 11
24.428
 20
3.525
 21
3.527
  0
LINE
  8
0
 10
24.428
 11
24.431
 20
3.527
 21
3.529
  0
LINE
  8
0
 10
24.431
 11
24.437
 20
3.529
 21
3.531
  0
LINE
  8
0
 10
24.437
 11
24.44
 20
3.531
 21
3.533
  0
LINE
  8
0
 10
24.44
 11
24.443
 20
3.533
 21
3.533
  0
LINE
  8
0
 10
24.443
 11
24.446
 20
3.533
 21
3.534
  0
LINE
  8
0
 10
24.446
 11
24.449
 20
3.534
 21
3.535
  0
LINE
  8
0
 10
24.449
 11
24.461
 20
3.535
 21
3.535
  0
LINE
  8
0
 10
24.461
 11
24.464
 20
3.535
 21
3.534
  0
LINE
  8
0
 10
24.464
 11
24.467
 20
3.534
 21
3.533
  0
LINE
  8
0
 10
24.467
 11
24.47
 20
3.533
 21
3.533
  0
LINE
  8
0
 10
24.47
 11
24.473
 20
3.533
 21
3.531
  0
LINE
  8
0
 10
24.473
 11
24.479
 20
3.531
 21
3.529
  0
LINE
  8
0
 10
24.479
 11
24.482
 20
3.529
 21
3.527
  0
LINE
  8
0
 10
24.482
 11
24.484
 20
3.527
 21
3.525
  0
LINE
  8
0
 10
24.484
 11
24.487
 20
3.525
 21
3.524
  0
LINE
  8
0
 10
24.487
 11
24.489
 20
3.524
 21
3.521
  0
LINE
  8
0
 10
24.489
 11
24.491
 20
3.521
 21
3.519
  0
LINE
  8
0
 10
24.491
 11
24.494
 20
3.519
 21
3.517
  0
LINE
  8
0
 10
24.494
 11
24.495
 20
3.517
 21
3.514
  0
LINE
  8
0
 10
24.495
 11
24.497
 20
3.514
 21
3.512
  0
LINE
  8
0
 10
24.497
 11
24.499
 20
3.512
 21
3.509
  0
LINE
  8
0
 10
24.499
 11
24.501
 20
3.509
 21
3.503
  0
LINE
  8
0
 10
24.501
 11
24.503
 20
3.503
 21
3.5
  0
LINE
  8
0
 10
24.503
 11
24.503
 20
3.5
 21
3.497
  0
LINE
  8
0
 10
24.503
 11
24.504
 20
3.497
 21
3.494
  0
LINE
  8
0
 10
24.504
 11
24.505
 20
3.494
 21
3.491
  0
LINE
  8
0
 10
24.505
 11
24.505
 20
3.491
 21
3.479
  0
LINE
  8
0
 10
24.505
 11
24.504
 20
3.479
 21
3.476
  0
LINE
  8
0
 10
24.504
 11
24.503
 20
3.476
 21
3.473
  0
LINE
  8
0
 10
24.503
 11
24.503
 20
3.473
 21
3.47
  0
LINE
  8
0
 10
24.503
 11
24.501
 20
3.47
 21
3.467
  0
LINE
  8
0
 10
24.501
 11
24.499
 20
3.467
 21
3.461
  0
LINE
  8
0
 10
24.499
 11
24.497
 20
3.461
 21
3.458
  0
LINE
  8
0
 10
24.497
 11
24.495
 20
3.458
 21
3.456
  0
LINE
  8
0
 10
24.495
 11
24.494
 20
3.456
 21
3.453
  0
LINE
  8
0
 10
24.494
 11
24.491
 20
3.453
 21
3.451
  0
LINE
  8
0
 10
24.491
 11
24.489
 20
3.451
 21
3.449
  0
LINE
  8
0
 10
24.489
 11
24.487
 20
3.449
 21
3.446
  0
LINE
  8
0
 10
24.487
 11
24.484
 20
3.446
 21
3.445
  0
LINE
  8
0
 10
24.484
 11
24.482
 20
3.445
 21
3.443
  0
LINE
  8
0
 10
24.482
 11
24.479
 20
3.443
 21
3.441
  0
LINE
  8
0
 10
24.479
 11
24.473
 20
3.441
 21
3.439
  0
LINE
  8
0
 10
24.473
 11
24.47
 20
3.439
 21
3.437
  0
LINE
  8
0
 10
24.47
 11
24.467
 20
3.437
 21
3.437
  0
LINE
  8
0
 10
24.467
 11
24.464
 20
3.437
 21
3.436
  0
LINE
  8
0
 10
24.464
 11
24.461
 20
3.436
 21
3.435
  0
LINE
  8
0
 10
24.461
 11
24.449
 20
3.435
 21
3.435
  0
LINE
  8
0
 10
24.449
 11
24.446
 20
3.435
 21
3.436
  0
LINE
  8
0
 10
24.446
 11
24.443
 20
3.436
 21
3.437
  0
LINE
  8
0
 10
24.443
 11
24.44
 20
3.437
 21
3.437
  0
LINE
  8
0
 10
24.44
 11
24.437
 20
3.437
 21
3.439
  0
LINE
  8
0
 10
24.437
 11
24.431
 20
3.439
 21
3.441
  0
LINE
  8
0
 10
24.431
 11
24.428
 20
3.441
 21
3.443
  0
LINE
  8
0
 10
24.428
 11
24.426
 20
3.443
 21
3.445
  0
LINE
  8
0
 10
24.426
 11
24.423
 20
3.445
 21
3.446
  0
LINE
  8
0
 10
24.423
 11
24.421
 20
3.446
 21
3.449
  0
LINE
  8
0
 10
24.421
 11
24.419
 20
3.449
 21
3.451
  0
LINE
  8
0
 10
24.419
 11
24.416
 20
3.451
 21
3.453
  0
LINE
  8
0
 10
24.416
 11
24.415
 20
3.453
 21
3.456
  0
LINE
  8
0
 10
24.415
 11
24.413
 20
3.456
 21
3.458
  0
LINE
  8
0
 10
24.413
 11
24.411
 20
3.458
 21
3.461
  0
LINE
  8
0
 10
24.411
 11
24.409
 20
3.461
 21
3.467
  0
LINE
  8
0
 10
24.409
 11
24.407
 20
3.467
 21
3.47
  0
LINE
  8
0
 10
24.407
 11
24.407
 20
3.47
 21
3.473
  0
LINE
  8
0
 10
24.407
 11
24.406
 20
3.473
 21
3.476
  0
LINE
  8
0
 10
24.406
 11
24.405
 20
3.476
 21
3.479
  0
ENDSEC
  0
SECTION
  2
OBJECTS
  0
DICTIONARY
  0
ENDSEC
  0
EOF
